<svg xmlns="http://www.w3.org/2000/svg" width="16.766" height="11.182" viewBox="0 0 16.766 11.182">
  <path id="Icon_ionic-ios-arrow-round-forward" data-name="Icon ionic-ios-arrow-round-forward" d="M18.567,11.466a.761.761,0,0,0-.006,1.072L22.1,16.084H8.626a.757.757,0,0,0,0,1.514H22.1l-3.541,3.546a.766.766,0,0,0,.006,1.072.754.754,0,0,0,1.066-.006l4.8-4.833h0a.85.85,0,0,0,.157-.239.723.723,0,0,0,.058-.291.759.759,0,0,0-.215-.53l-4.8-4.833A.742.742,0,0,0,18.567,11.466Z" transform="translate(-7.875 -11.251)" fill="#fff"/>
</svg>
