<svg id="Icon_e-commerce" xmlns="http://www.w3.org/2000/svg" width="85.7" height="77" viewBox="0 0 85.7 77">
  <path id="パス_4012" data-name="パス 4012" d="M433.674,69.348A1.674,1.674,0,1,0,432,67.674a1.674,1.674,0,0,0,1.674,1.674Z" transform="translate(-359.687 -59.304)" fill="#0095f9"/>
  <path id="パス_4013" data-name="パス 4013" d="M147.674,69.348A1.674,1.674,0,1,0,146,67.674a1.674,1.674,0,0,0,1.674,1.674Z" transform="translate(-121.561 -59.304)" fill="#0095f9"/>
  <path id="パス_4014" data-name="パス 4014" d="M107.674,69.348A1.674,1.674,0,1,0,106,67.674a1.674,1.674,0,0,0,1.674,1.674Z" transform="translate(-88.256 -59.304)" fill="#0095f9"/>
  <path id="パス_4015" data-name="パス 4015" d="M67.674,69.348A1.674,1.674,0,1,0,66,67.674a1.674,1.674,0,0,0,1.674,1.674Z" transform="translate(-54.952 -59.304)" fill="#0095f9"/>
  <path id="パス_4016" data-name="パス 4016" d="M5.022,103H80.683A5.027,5.027,0,0,0,85.7,97.978V31.022A5.027,5.027,0,0,0,80.683,26H5.022A5.027,5.027,0,0,0,0,31.022V97.978A5.027,5.027,0,0,0,5.022,103Zm75.661-3.348H5.022a1.675,1.675,0,0,1-1.674-1.674V42.739H82.357V97.978a1.675,1.675,0,0,1-1.674,1.674ZM5.022,29.348H80.683a1.675,1.675,0,0,1,1.674,1.674v8.37H3.348v-8.37a1.675,1.675,0,0,1,1.674-1.674Z" transform="translate(0 -26)" fill="#0095f9"/>
  <path id="パス_4017" data-name="パス 4017" d="M327.674,69.348h11.048a1.674,1.674,0,1,0,0-3.348H327.674a1.674,1.674,0,0,0,0,3.348Z" transform="translate(-271.431 -59.304)" fill="#0095f9"/>
  <path id="パス_4018" data-name="パス 4018" d="M123.943,406H61.674a1.674,1.674,0,0,0,0,3.348h62.27a1.674,1.674,0,1,0,0-3.348Z" transform="translate(-49.957 -342.391)" fill="#0095f9"/>
  <path id="パス_4019" data-name="パス 4019" d="M345.417,306H327.674a1.674,1.674,0,0,0,0,3.348h17.743a1.674,1.674,0,1,0,0-3.348Z" transform="translate(-271.431 -259.13)" fill="#0095f9"/>
  <path id="パス_4020" data-name="パス 4020" d="M345.417,186H327.674a1.674,1.674,0,1,0,0,3.348h17.743a1.674,1.674,0,1,0,0-3.348Z" transform="translate(-271.431 -159.217)" fill="#0095f9"/>
  <path id="パス_4021" data-name="パス 4021" d="M345.417,246H327.674a1.674,1.674,0,1,0,0,3.348h17.743a1.674,1.674,0,0,0,0-3.348Z" transform="translate(-271.431 -209.174)" fill="#0095f9"/>
  <path id="パス_4022" data-name="パス 4022" d="M126,311.022A5.022,5.022,0,1,0,131.022,306,5.022,5.022,0,0,0,126,311.022Zm5.022-1.674a1.674,1.674,0,1,1-1.674,1.674,1.674,1.674,0,0,1,1.674-1.674Z" transform="translate(-104.909 -259.13)" fill="#0095f9"/>
  <path id="パス_4023" data-name="パス 4023" d="M206,311.022A5.022,5.022,0,1,0,211.022,306,5.022,5.022,0,0,0,206,311.022Zm5.022-1.674a1.674,1.674,0,1,1-1.674,1.674,1.674,1.674,0,0,1,1.674-1.674Z" transform="translate(-171.518 -259.13)" fill="#0095f9"/>
  <path id="パス_4024" data-name="パス 4024" d="M67.674,169.348h3.715l1.357,5.428,3.348,13.391a1.674,1.674,0,0,0,1.624,1.268H97.8a1.672,1.672,0,0,0,1.624-1.268l3.348-13.391a1.673,1.673,0,0,0-1.624-2.08H75.677l-1.358-5.428A1.672,1.672,0,0,0,72.7,166H67.674a1.674,1.674,0,0,0,0,3.348Zm31.334,6.7L96.5,186.087H79.025l-2.511-10.043Z" transform="translate(-54.952 -142.565)" fill="#0095f9"/>
  <path id="パス_4025" data-name="パス 4025" d="M167.674,249.348h6.7a1.674,1.674,0,0,0,0-3.348h-6.7a1.674,1.674,0,1,0,0,3.348Z" transform="translate(-138.213 -209.174)" fill="#0095f9"/>
</svg>
