<svg id="Icon_Retail_Planning" xmlns="http://www.w3.org/2000/svg" width="77" height="77" viewBox="0 0 77 77">
  <path id="パス_4006" data-name="パス 4006" d="M43.613,77H33.387a3.011,3.011,0,0,1-3.008-3.008V69.5a31.779,31.779,0,0,1-8.055-3.34l-3.178,3.18a3.012,3.012,0,0,1-4.254,0L7.661,62.108a3.011,3.011,0,0,1,0-4.253l3.177-3.178A31.779,31.779,0,0,1,7.5,46.621H3.008A3.011,3.011,0,0,1,0,43.613V33.387a3.011,3.011,0,0,1,3.008-3.008h4.48a31.766,31.766,0,0,1,3.337-8.069L7.661,19.145a3.011,3.011,0,0,1,0-4.253L14.893,7.66a3.012,3.012,0,0,1,4.254,0L22.3,10.814A31.771,31.771,0,0,1,30.38,7.46V3.008A3.011,3.011,0,0,1,33.387,0H43.613a3.011,3.011,0,0,1,3.008,3.008V7.45a31.784,31.784,0,0,1,8.093,3.35l3.14-3.139a3.011,3.011,0,0,1,4.253,0l7.232,7.232a3.012,3.012,0,0,1,0,4.254L66.2,22.285a31.783,31.783,0,0,1,3.35,8.093h4.442A3.011,3.011,0,0,1,77,33.387V43.613a3.011,3.011,0,0,1-3.008,3.008H69.54a31.792,31.792,0,0,1-3.354,8.08l3.153,3.153a3.011,3.011,0,0,1,0,4.253L62.108,69.34a3.012,3.012,0,0,1-4.254,0L54.69,66.175a31.784,31.784,0,0,1-8.069,3.337v4.48A3.011,3.011,0,0,1,43.613,77ZM22.1,62.756a1.5,1.5,0,0,1,.809.236,28.8,28.8,0,0,0,9.3,3.857,1.5,1.5,0,0,1,1.179,1.469v5.674H43.613V68.327a1.5,1.5,0,0,1,1.181-1.469,28.819,28.819,0,0,0,9.315-3.852,1.5,1.5,0,0,1,1.872.2l4,4,7.231-7.231L63.22,55.989a1.5,1.5,0,0,1-.2-1.874,28.814,28.814,0,0,0,3.872-9.323,1.5,1.5,0,0,1,1.468-1.179H74V33.387H68.365A1.5,1.5,0,0,1,66.9,32.206a28.8,28.8,0,0,0-3.865-9.337,1.5,1.5,0,0,1,.2-1.873l3.977-3.977L59.981,9.788,56,13.765a1.5,1.5,0,0,1-1.873.2A28.808,28.808,0,0,0,44.794,10.1a1.5,1.5,0,0,1-1.181-1.469V3.008H33.387V8.643a1.5,1.5,0,0,1-1.178,1.469,28.81,28.81,0,0,0-9.324,3.871,1.5,1.5,0,0,1-1.873-.2l-3.993-4L9.788,17.019l4,4a1.5,1.5,0,0,1,.2,1.871A28.815,28.815,0,0,0,10.137,32.2a1.5,1.5,0,0,1-1.469,1.181H3.008V43.613H8.682a1.5,1.5,0,0,1,1.469,1.179,28.8,28.8,0,0,0,3.857,9.3,1.5,1.5,0,0,1-.2,1.873l-4.02,4.016,7.231,7.232L21.034,63.2a1.5,1.5,0,0,1,1.066-.444Z" fill="#0095f9"/>
  <path id="パス_4007" data-name="パス 4007" d="M132.014,153.92a21.953,21.953,0,1,1,10.733-41.108,1.5,1.5,0,1,1-1.471,2.623,18.949,18.949,0,1,0,7.7,8.07,1.5,1.5,0,1,1,2.69-1.344,21.95,21.95,0,0,1-19.649,31.759Z" transform="translate(-93.514 -93.473)" fill="#0095f9"/>
  <path id="パス_4008" data-name="パス 4008" d="M345.856,155.02a1.505,1.505,0,1,1,1.063-.441,1.5,1.5,0,0,1-1.063.441Z" transform="translate(-292.565 -129.151)" fill="#0095f9"/>
  <path id="パス_4009" data-name="パス 4009" d="M179.663,204.49a1.5,1.5,0,0,1-1.063-.441l-9.51-9.511a1.5,1.5,0,0,1,0-2.127l5.394-5.4a1.506,1.506,0,0,1,2.127,0l3.052,3.053,7.3-7.3a1.5,1.5,0,0,1,2.127,0l5.4,5.4a1.5,1.5,0,0,1,0,2.127L180.73,204.046a1.506,1.506,0,0,1-1.067.444Zm-7.384-11.015,7.384,7.384,11.629-11.628-3.268-3.267-7.3,7.3a1.5,1.5,0,0,1-2.127,0l-3.053-3.053Z" transform="translate(-143.285 -154.911)" fill="#0095f9"/>
</svg>
