<svg xmlns="http://www.w3.org/2000/svg" width="80.027" height="69.439" viewBox="0 0 80.027 69.439">
  <g id="Icon_Digital" transform="translate(-0.023 -0.001)">
    <g id="グループ_545" data-name="グループ 545">
      <path id="パス_3999" data-name="パス 3999" d="M126.442,216.875l-9.889-9.084a1.679,1.679,0,0,0-2.229,0l-9.934,9.083a1.449,1.449,0,0,0,1.113,2.477h4.358a21.749,21.749,0,0,1-7.632,11.658,25.183,25.183,0,0,1-15.686,5.383,24.587,24.587,0,0,1-19.778-9.608,1.621,1.621,0,0,0-1.3-.633H56.326a1.474,1.474,0,0,0-1.425,2.073,33.277,33.277,0,0,0,12.692,13.253,37.185,37.185,0,0,0,18.95,5.112,36.767,36.767,0,0,0,23.412-8.243,31.457,31.457,0,0,0,11.2-19h4.167a1.449,1.449,0,0,0,1.116-2.475Zm-6.665-.425a1.537,1.537,0,0,0-1.568,1.287,28.5,28.5,0,0,1-10.364,18.451,33.453,33.453,0,0,1-21.3,7.5,33.829,33.829,0,0,1-17.24-4.65,30.6,30.6,0,0,1-10.366-9.99h5.707a27.914,27.914,0,0,0,21.9,10.241A28.508,28.508,0,0,0,104.3,233.2a24.4,24.4,0,0,0,9.025-15.082,1.511,1.511,0,0,0-1.561-1.664h-2.439l6.109-5.585,6.081,5.586Z" transform="translate(-46.817 -177.149)" fill="#0095f9"/>
      <path id="パス_4000" data-name="パス 4000" d="M11.44,79.511a1.645,1.645,0,0,0,1.112-.422L22.472,70a1.449,1.449,0,0,0-1.112-2.477H16.64a21.255,21.255,0,0,1,7.2-13.356,24.915,24.915,0,0,1,16.534-6.113A24.155,24.155,0,0,1,61.6,59.943a1.6,1.6,0,0,0,1.4.783h8.668a1.619,1.619,0,0,0,1.3-.623,1.352,1.352,0,0,0,.182-1.334,32.415,32.415,0,0,0-9.876-13.057,36.238,36.238,0,0,0-15.6-7.148A1.58,1.58,0,0,0,45.8,39.681,1.456,1.456,0,0,0,47.02,41.4a32.963,32.963,0,0,1,14.188,6.5,29.793,29.793,0,0,1,8.1,9.923H63.943C59.145,49.99,50.2,45.159,40.376,45.159A28.2,28.2,0,0,0,21.66,52.08a23.921,23.921,0,0,0-8.3,16.834,1.525,1.525,0,0,0,1.574,1.514H17.54l-6.1,5.586L5.369,70.427H6.995a1.522,1.522,0,0,0,1.575-1.4A27.669,27.669,0,0,1,16.1,51.1a32.585,32.585,0,0,1,17.718-9.72,1.456,1.456,0,0,0,1.22-1.716,1.579,1.579,0,0,0-1.866-1.122A35.818,35.818,0,0,0,13.7,49.229a30.946,30.946,0,0,0-8.2,18.3H1.564A1.449,1.449,0,0,0,.449,70l9.876,9.084a1.643,1.643,0,0,0,1.115.427Z" transform="translate(0 -37.862)" fill="#0095f9"/>
      <path id="パス_4001" data-name="パス 4001" d="M176.817,154.3a1.45,1.45,0,0,0-1.45,1.45v26.579a1.45,1.45,0,0,0,1.45,1.45h20.472a1.45,1.45,0,0,0,1.45-1.45V155.746a1.45,1.45,0,0,0-1.45-1.45Zm19.022,26.579H178.266V157.2h17.573Z" transform="translate(-147.015 -134.316)" fill="#0095f9"/>
      <path id="パス_4002" data-name="パス 4002" d="M222.8,201.594h7.276a1.45,1.45,0,0,0,0-2.9H222.8a1.45,1.45,0,0,0,0,2.9Z" transform="translate(-186.331 -172.849)" fill="#0095f9"/>
      <path id="パス_4003" data-name="パス 4003" d="M222.8,248.338h7.276a1.45,1.45,0,0,0,0-2.9H222.8a1.45,1.45,0,1,0,0,2.9Z" transform="translate(-186.331 -212.257)" fill="#0095f9"/>
      <path id="パス_4004" data-name="パス 4004" d="M222.8,295.081h7.276a1.45,1.45,0,0,0,0-2.9H222.8a1.45,1.45,0,1,0,0,2.9Z" transform="translate(-186.331 -251.664)" fill="#0095f9"/>
      <path id="パス_4005" data-name="パス 4005" d="M246.922,36.66a1.449,1.449,0,1,0-.546-1.725,1.449,1.449,0,0,0,.546,1.725Z" transform="translate(-207.649 -34.006)" fill="#0095f9"/>
    </g>
  </g>
</svg>
