<svg xmlns="http://www.w3.org/2000/svg" width="72.188" height="76.989" viewBox="0 0 72.188 76.989">
  <g id="Icon_SAP_solutions" transform="translate(0.004 -0.008)">
    <g id="グループ_547" data-name="グループ 547" transform="translate(0 21.055)">
      <g id="グループ_546" data-name="グループ 546">
        <path id="パス_4010" data-name="パス 4010" d="M86.684,192.938h-1.5V168.574a1.5,1.5,0,0,0-1.5-1.5H74.652a1.5,1.5,0,0,0-1.5,1.5v24.363H67.133v-42.41a1.5,1.5,0,0,0-1.5-1.5H56.606a1.5,1.5,0,0,0-1.5,1.5v42.41h-6.02V162.559a1.5,1.5,0,0,0-1.5-1.5H38.559a1.5,1.5,0,0,0-1.5,1.5v30.379h-6.02V141.5a1.5,1.5,0,0,0-1.5-1.5H20.512a1.5,1.5,0,0,0-1.5,1.5v51.434H17.5a1.5,1.5,0,0,0,0,3.008H86.68a1.5,1.5,0,0,0,0-3.008Zm-58.652,0H22.016v-49.93h6.016Zm18.047,0H40.063V164.063h6.016Zm18.047,0H58.109V152.031h6.016Zm18.047,0H76.156v-22.86h6.016Z" transform="translate(-16 -140)" fill="#0095f9"/>
      </g>
    </g>
    <g id="グループ_549" data-name="グループ 549" transform="translate(3.008)">
      <g id="グループ_548" data-name="グループ 548">
        <path id="パス_4011" data-name="パス 4011" d="M96.156,27.07a5.976,5.976,0,0,0-3.056.83l-9.808-9.8a6.019,6.019,0,1,0-10.861-1.078l-8.357,5.571a6.009,6.009,0,0,0-6.659-.918L46.945,9.457a6.012,6.012,0,1,0-2.282,1.959l10.47,12.213a6.017,6.017,0,1,0,10.608,1.463L74.1,19.521a6.018,6.018,0,0,0,7.068.7l9.808,9.808a6.017,6.017,0,1,0,5.183-2.96ZM42.016,9.023a3.008,3.008,0,1,1,3.008-3.008,3.008,3.008,0,0,1-3.008,3.008ZM60.063,30.078A3.008,3.008,0,1,1,63.07,27.07a3.008,3.008,0,0,1-3.007,3.008ZM78.109,18.047a3.008,3.008,0,1,1,3.008-3.008,3.008,3.008,0,0,1-3.008,3.008ZM96.156,36.094a3.008,3.008,0,1,1,3.008-3.008A3.008,3.008,0,0,1,96.156,36.094Z" transform="translate(-36)" fill="#0095f9"/>
      </g>
    </g>
  </g>
</svg>
