<svg xmlns="http://www.w3.org/2000/svg" xmlns:xlink="http://www.w3.org/1999/xlink" width="269.675" height="358.835" viewBox="0 0 269.675 358.835">
  <defs>
    <clipPath id="clip-path">
      <rect id="長方形_284" data-name="長方形 284" width="269.675" height="358.835" fill="#a6deeb"/>
    </clipPath>
    <clipPath id="clip-path-2">
      <rect id="長方形_250" data-name="長方形 250" width="61.669" height="85.465" fill="#003a70"/>
    </clipPath>
  </defs>
  <g id="グループ_593" data-name="グループ 593" transform="translate(-52.662 -2449.533)">
    <text id="Warp_Japan_VISEO" data-name="Warp Japan
VISEO" transform="translate(129.254 2630.01)" fill="#003a70" font-size="24" font-family="NotoSansCJKjp-Bold, Noto Sans CJK JP" font-weight="700"><tspan x="-69.828" y="0">Warp Japan</tspan><tspan x="-35.484" y="44">VISEO</tspan></text>
    <g id="グループ_497" data-name="グループ 497" transform="translate(52.662 2449.533)">
      <g id="グループ_494" data-name="グループ 494" transform="translate(0 0)">
        <g id="グループ_493" data-name="グループ 493" clip-path="url(#clip-path)">
          <path id="パス_3636" data-name="パス 3636" d="M450.107,43.332c-1.939.8-3.365.088-4.672-1.919a13.049,13.049,0,0,0-1.34-2.209,4.848,4.848,0,0,1-.8-1.3,5.8,5.8,0,0,0-.978-1.412,3.122,3.122,0,0,1-.761-1.775c-.046-.491-.487-1.7-.616-2.643-.2-1.432-.222-4.147.616-5.034.336-.356.633-1.083,1.34-1.883a4.991,4.991,0,0,0,.978-3.115c.142-3.326.456-2.952-2.355-.4a6.835,6.835,0,0,0-2.463,3.911c-.147.786-.77,1.28-1.557,2.21-.548.646-1.657.793-2.572,1.811-.615.683-3.24.662-5.542.326-1.25-.183-5.1-.551-7.461-.761a11.5,11.5,0,0,1-5.831-2.1c-1.178-.864-2.556-2.027-3.948-2.1-1.2-.063-2.856-1.315-3.911-2.209a7.415,7.415,0,0,0-1.2-.979,6.529,6.529,0,0,1-1.267-1.05,4.867,4.867,0,0,0-1.63-1.087c-1.143-.453-1.995-1.674-3.006-2.753a27.5,27.5,0,0,0-3.984-3.694,15.974,15.974,0,0,1-2.752-2.752c-.757-.9-1.63-1.5-2.355-2.319L385.82,1.066c-1.228-1.388-4.1-1.653-4.2.616l-.036,2.535c-.007.483-.23.548-.978,1.123l-1.413,1.086a4.413,4.413,0,0,0-.289,4.636c.315.527,1,.843,1.05,1.377a5.26,5.26,0,0,0,1.775,2.39,4.631,4.631,0,0,1,1.63,2.318A8.635,8.635,0,0,0,383.9,18.7a2.8,2.8,0,0,1-.181,2.39,3.264,3.264,0,0,0-.652,2.137l-.109,5.65c-.01.513.1.976-.579,1.412-.592.378-1.009,1.079-.072,1.449.535.211.6.683.615,1.557l.109,4.745a2.6,2.6,0,0,1-1.232,2.318,17.935,17.935,0,0,0-1.412,1.2c-.416.351-1.8,2.959-.073,3.042.656.032.525.671.507,1.522l-.109,5.324a4.125,4.125,0,0,1-4.056,3.476c-1.224.048-2.9-.079-4.419.073-2.345.236-1.79-.93-2.644-1.34-1.488-.716-4.28-.573-5.36.4a2.346,2.346,0,0,0-.724,2.9,4.227,4.227,0,0,0,1.739,2.318c1.345,1,.79,3.172-.29,4.528a22.636,22.636,0,0,1-2.753,2.825,5.817,5.817,0,0,1-1.593,1.086,4.1,4.1,0,0,0-1.2.761,7.643,7.643,0,0,1-1.485.8c-.437.225-.745.713-1.485,1.666-.468.6-.44,1.244-.761,1.629a3.051,3.051,0,0,0-.471,2.1v3.875c.079,1.05.019,1.643,1.231,2.173a4.654,4.654,0,0,1,1.449,1.014,10.691,10.691,0,0,0,2.137,1.521c.5.3.7.9,1.086,1.232,1.164,1.006,1.533,1.482,1.63,2.245l.29,2.282a1.864,1.864,0,0,1-.869,1.811l-1.087.833c-1.21.927-1.031,3.676-.47,4.563a4.522,4.522,0,0,0,2.354,2.318c.6.195,1.152.145,1.558.435a1.339,1.339,0,0,0,2.137-.289,3.869,3.869,0,0,0,.905-1.341,6.694,6.694,0,0,0,.254-2.752,3.322,3.322,0,0,1,.471-2.753,18.316,18.316,0,0,1,2.354-2.969c.381-.427.924-.829,1.739.253a2.6,2.6,0,0,0,1.775,1.159,10.147,10.147,0,0,1,1.811.326,2.012,2.012,0,0,0,2.5-.761c.462-.6,1.06-1.077,1.7-1.847.759-.91.981-1.619-.869-1.992a26.55,26.55,0,0,1-4.31-1.558c-.449-.185-1.017-.281-.978-.942l.073-1.231c.063-1.071-.46-1.429-1.485-1.3a16.1,16.1,0,0,1-4.129-.073c-1.465-.311-3.321-1.024-4.057-2.861l-.073-1.811c-.051-1.277-.339-2.618,1.087-3.766.4-.319.576-.429.978-.761a2.659,2.659,0,0,1,1.63-.652,21.133,21.133,0,0,1,2.137-.289,3.41,3.41,0,0,1,3.223,1.593,10.831,10.831,0,0,1,1.413,2.825c.589,1.5.406,1.833,1.883.109l3.912-4.563c.545-.636.542-1.039,2.427-1.485.814-.193,1.723-.328,2.209-.472a17.457,17.457,0,0,1,5.36-.326,4.024,4.024,0,0,1,2.716.834,13.166,13.166,0,0,0,2.5,1.63,12.254,12.254,0,0,1,2.717,2.209,3.607,3.607,0,0,0,1.448,1.014,4.67,4.67,0,0,1,1.268.942,4.116,4.116,0,0,0,1.811,1.123,5.785,5.785,0,0,1,1.449.8,23.545,23.545,0,0,0,5.179,1.232,13.428,13.428,0,0,1,4.492,1.449c2.4,1.407,2.283,1.444,2.39-1.63l.145-4.164c.094-2.7.139-4.823,1.268-6.737a9.5,9.5,0,0,0,1.449-2.209,3.511,3.511,0,0,1,1.521-2.064c.564-.357.853-1.171,1.376-1.812a29.973,29.973,0,0,1,4.636-4.78,13.127,13.127,0,0,0,1.557-1.629c1.913-1.683,3.738-.771,5.686-.037a7.639,7.639,0,0,0,3.115.29c1.523-.068,1.917.2.435-1.593-1.082-1.307.035-4.057,2.065-1.558,1.218,1.5,2.244.6,3.44-.833a8.835,8.835,0,0,1,4.093-2.608c2.152-.709,3-2.171,3.984-3.911.744-1.313,5.814-3.946-1.232-1.051" transform="translate(-184.123 0)" fill="#a6deeb"/>
          <path id="パス_3637" data-name="パス 3637" d="M244.909,234.811c-2.074-1.916-2.912-4.1-4.057-5.9a23.613,23.613,0,0,0-2.544-3.417c.044-.069.068-.114.075-.125l-.405-.221c-.149-.15-.3-.3-.458-.437a14.768,14.768,0,0,1-1.956-2.246,12.287,12.287,0,0,0-2.391-2.68,7.165,7.165,0,0,1-1.123-1.847,5.037,5.037,0,0,1-.362-2.825,27.3,27.3,0,0,0,.109-3.477,4.3,4.3,0,0,0-.942-2.5,8.817,8.817,0,0,1-.254-2.318,24.538,24.538,0,0,1-.145-2.753c-.006-1.907-.905-1.671-2.209-.724a2.849,2.849,0,0,1-3.984-.869,2.04,2.04,0,0,0-3.549,1.593h0a4.271,4.271,0,0,1-.724,2.39c-.541.963-1.783,3.173-.507,3.694a4.761,4.761,0,0,0,5.723-1.666c1.284-1.515,2.757-1.612,2.716.725-.027,1.558.376,4.928-.108,5.686-1.085,1.7-1.456,1.5-2.318.652-1.729-1.708-3.185-.539-3.622.76-.747,2.219-2.16,1.556-2.753.905a4.7,4.7,0,0,1-1.521-2.5c-.11-1.118.181-3.058,0-3.585-.5-1.447-1.241-3.208-3.187-2.137a2.766,2.766,0,0,1-1.883.4c-.9-.3-1.415,1.933-1.449,2.934-.018.523.2,5.318.036,5.939a7.086,7.086,0,0,1-3.368,4.636,17.7,17.7,0,0,1-1.666.652c-.973.487-2.375,1.323-.724,2.825a7.173,7.173,0,0,1,1.159,1.666A6.49,6.49,0,0,0,208,229.7c.035.026.061.056.093.083l-.009.006.266.4.084-.055a3.538,3.538,0,0,1,.616,2.1c.03.8-.1,2.2-.145,3.151a6.61,6.61,0,0,1-2.173,4.31,5.054,5.054,0,0,0-2.246,3.332c-.1,1.675,3.136,3.126,4.528.072a3.129,3.129,0,0,0,.362-1.448c.052-2.874,1.265-1.4.978.072a18.125,18.125,0,0,0-.072,2.39,3.153,3.153,0,0,0,.942,2.39c.607.5.579,1.678.579,2.463,0,1.905.117,5.748,0,7.316a5.753,5.753,0,0,1-.8,2.68,2.959,2.959,0,0,0-.471,1.1h-.048l0,.193a11.511,11.511,0,0,0,.01,2.947,14.137,14.137,0,0,1-2.173,5.9,6.475,6.475,0,0,0-1.594,3.948,3.257,3.257,0,0,1-.264,1.264h0l-.183.156c.027.031.06.057.087.088a5.821,5.821,0,0,1-.762,1.425c-.381.483-.219,3.284-.253,4.635-.084,3.31-2.647,7.363-5.36,8.693-1.149.563-4.893,4.045-5.215,6.628a8.125,8.125,0,0,1-1.377,3.151,14.132,14.132,0,0,0-1.231,3.26,8.475,8.475,0,0,1-1.268,2.716,13.638,13.638,0,0,1-2.282,2.5,14.957,14.957,0,0,0-2.028,1.593,7.49,7.49,0,0,1-1.956,1.449,5.886,5.886,0,0,0-1.811,1.268c-.545.6-1.629.924-2.318,1.557-.875.8-1.681.932-3.44,1.521a2.662,2.662,0,0,1-.43.1l-.222-.253-.365.314h0a4.082,4.082,0,0,0-2.028.422c-.392.3-1.013,1.088-1.485,1.231a1.646,1.646,0,0,0-.833,1.413,2.628,2.628,0,0,1-3.223,2.427c-2.3-.313-3.913-4.1-3.26-4.781.934-.969.512-1.707-.869-2.028-1.518-.353-.553-1.975.507-2.535a9.617,9.617,0,0,0,3.549-2.825,7.938,7.938,0,0,1,1.123-1.594c.37-.265.986-2.424.4-3.259-.9-1.279-3.573-.38-4.2.8-.357.669-.866,1.686-3.549,1.956a5.726,5.726,0,0,0-2.753,1.811,12.508,12.508,0,0,1-1.3,1.521c-1.547,1.528-.518,3.462.29,5,.659,1.253,1.5,7.778-.109,10.141-.4.589-.834,1.582-1.231,2.173-1.147,1.707-2.781,3.8-4.081,5.549l-.121-.091-.29.385.125.095-.162.22a22.627,22.627,0,0,0-2.318,3.259,11.812,11.812,0,0,1-2.282,3.079c-1.33,1.412-.506,2.79.905,4.382.663.747,2.753,3.7-.978,5.723-.558.3-1.881.078-2.39,1.666a3.406,3.406,0,0,1-1.34,1.521c-.508.33-1.215.4-1.883.724a2.045,2.045,0,0,1-1.672.207c0-.018,0-.037.01-.055l-.233-.058h0a2.949,2.949,0,0,1-.893-1.216c-.458-1.052-2.09-.266-2.5,1.123-.468,1.588-1.836,1.174-2.318-1.521a19.2,19.2,0,0,1,.218-2.608,1.412,1.412,0,0,0-1.377-1.739c-.8-.121-1.388.484-2.173,1.594a6.192,6.192,0,0,1-1.232,1.521c-.773.513-1.024.922-1.8,1.095-.015-.028-.034-.055-.048-.083l-.263.137a7.878,7.878,0,0,1-1.436.01c-1.433-.092-2.4-.828-4.6-.76a3.479,3.479,0,0,0-2.872,1.03l-.027-.03-.179.159h0a9.485,9.485,0,0,1-3.115,1.485c-1.734.194-2.456,1.158-3.477,1.521a13.671,13.671,0,0,1-2.862.761,29.386,29.386,0,0,1-4.563,0c-3.218-.286-3.513,1.475-5.578,1.739-.032,0-.068.005-.1.008.005-.053.008-.106.014-.16l-.478-.057c-.01.082-.014.162-.022.243-.769.009-1.7-.076-2.347,0-.932.115-1.95-.78-1.3-1.413.582-.569.629-1.442-1.231-1.412-.973.015-1.937.155-2.354.906a8.381,8.381,0,0,1-2.68,1.992c-1.52.88-2.957,2.329-3.115,3.079a6.2,6.2,0,0,1-1.775,2.5c-1.864,1.831-4.611,3.95-6.41,6.157a21.7,21.7,0,0,1-3.223,3.622,22.846,22.846,0,0,0-2.97,3.405c-1.707,2.225-2.59,2.715-3.875,2.535-1.466-.2-3.082,1.711-3.731,3.043-.47.964-.967,2.326-2.68,2.825-.812.236-1.88.141-2.825.906a3.949,3.949,0,0,1-2.1.181,1.819,1.819,0,0,0-2.245,1.81,16.7,16.7,0,0,1-.326,3.731c-.334.868.15,1.433.833,1.34.244-.033.9.489,1.014.652a.969.969,0,0,0,1.3.362c1.182-.7,1.25.489,1.521.942a7.838,7.838,0,0,1,.434.8c.591,1.352,1.835,1.146,2.68.652a7.841,7.841,0,0,1,1.666-1.3,4.433,4.433,0,0,0,1.377-1.087c.694-.81,3.776-1.277,6.736-.253.317.109,1.141.609,1.593.833a4.751,4.751,0,0,1,1.521,1.3,4.2,4.2,0,0,0,1.449,1.232,2.009,2.009,0,0,1,1.014.579c1.256,1.506.929-1.053,1.05-1.739s-.01-2.929.942-3.767c.313-.275,1.3-2.758.833-3.984a2.261,2.261,0,0,1-.1-.365l.206-.432-.24-.118c.192-2.092,4.028-2.926,5.424-.245a2.451,2.451,0,0,0,4.346.108c.54-.919,2.767-1.8,4.057-1.919A4.989,4.989,0,0,0,97,383.232c.4-.59,2.609-2.017,3.767-1.123.972.751,2.153.494,2.1-.724a1.315,1.315,0,0,1,.733-1.048l.131.077a.254.254,0,0,0-.016-.143,2.109,2.109,0,0,1,1.4-.262c1.122.244,1.757.052,2.1-.507.515-.837,1.782-.173,2.246.434.557.73,3.359.259,3.694-1.159.092-.386.542-1.4,2.825-2.426a15.826,15.826,0,0,0,3.728-3.04l.187-.156,0,0c.928-.658,3.477-.623,5.541-.276,1.506.252,2.862.827,4.382.688a9.111,9.111,0,0,1,3.549.507c2.432.843,4.276-.112,5.469-.29.878-.131,1.332.08,1.574.45l0,.039.032,0a4.8,4.8,0,0,1,.28,1.935,3.175,3.175,0,0,1-1.2,2.608,7.672,7.672,0,0,0-1.123,1.449,6.9,6.9,0,0,1-1.992,1.594c-1.3.679-1.594,1.275-.942,4.165a8.758,8.758,0,0,1,0,3.4,2.7,2.7,0,0,0,1.521,3.115,2.572,2.572,0,0,1,1.956,1.956c.13.615.717,1.058,1.2,1.557a13.04,13.04,0,0,0,.942,1.195c1.362.957,1.744,1.044,2.064,1.087a5.651,5.651,0,0,1,2.608,1.3,2.389,2.389,0,0,0,1.593.724c.468-.007.946.4,1.2.434,1.2.158,1.639-.732,2.173-1.195a4.6,4.6,0,0,1,2.064-1.449c1.336-.323,1.112-1.832,1.06-3.611.066.014.128.03.2.044l.1-.472c-.105-.021-.2-.045-.3-.068-.015-3.622-.09-2.848,2.5-4.984,1.937-1.6,2.716-1.979,2.535-4.274-.188-2.391,1.283-2.422,2.608-3.259s3.515-1.118,4.817-1.666c.774-.326,1.735.031,2.137-.145,5.473-2.4-.395-5.764-1.956-6.555a10.37,10.37,0,0,1-2.282-1.3,16.183,16.183,0,0,0-2.5-1.666c-1.064-.641-.615-1.639-.145-2.535.357-.679,1.1-2.032,1.522-2.789a6.746,6.746,0,0,1,2.419-1.7l.237-.075v0c1.7-.561,2.013-.831,1.836,1.632a5.059,5.059,0,0,0,.507,2.68c1.627,2.657,1.5,1.358,4.274.435a7.855,7.855,0,0,1,1.594-.362c3.384-.306,1.663,1.677.869,2.173-5.205,3.252-1.6,2.182.724,1.3,1.447-.546,5.709-1.444,6.121-1.521,3.094-.578,8.349.052,11.481-.362,1.229-.162,2.131.553,2.463-2.209A3.633,3.633,0,0,1,196.92,364a5.428,5.428,0,0,0,1.2-3.694,2.838,2.838,0,0,1,1.666-2.39c.613-.207,1.492-.935,2.717-1.485s3-.719,2.861,2.065c-.041.843.012,3.064-.072,4.491-.128,2.174,2.1,5.275,3.042,2.825.231-.6-.378-1.139,1.232-2.1.554-.332.958-1.167,1.521-1.484a2.526,2.526,0,0,0,1.231-2.572,22.9,22.9,0,0,1,0-2.9,2.814,2.814,0,0,0-1.05-2.064,1.784,1.784,0,0,1-.443-1.058v0l0-.239-.024,0a6,6,0,0,1,.244-1.85,4.3,4.3,0,0,1,2.173-2.5c1.005-.552,2.585-.416,3.73-.471a1.823,1.823,0,0,1,2.173,1.738c.5,2.683,5.2.261,2.028-3.622a5.552,5.552,0,0,1-1.087-2.752c-.124-1.578-.078-2.994,1.521-3.73.115-.053.244-.109.374-.164,0,.007,0,.013,0,.02l.482,0c0-.075,0-.146,0-.219.387-.16.781-.321,1.1-.468,2.4-1.1,5.914-.165,3.44,2.607-.394.441-1.406,1.475-1.847,1.919-.747.754-1.553.168-1.557,3.4,0,1.326-.04,3.131.036,4.455a6.848,6.848,0,0,0,.507,1.919,3.546,3.546,0,0,1,.217,1.847c-.163,1.361.652,1.857,1.521,1.738a2.872,2.872,0,0,0,2.391-2.173,3.126,3.126,0,0,1,1.7-2.427,23.263,23.263,0,0,1,2.717-1.92c1.209-.506,2.129-1.18,1.883-4.093-.122-1.448.213-3.322.181-4.491-.047-1.687-.259-3.768,2.137-4.744.873-.356,1.793-1.044,2.644-1.449,1.184-.563,1.507-1.137,1.415-1.69l-.015-.289-.067,0a4.641,4.641,0,0,0-1.079-1.356c-.79-.777-1.957-1.985-2.68-2.825a11.424,11.424,0,0,1-2.572-7.026c.006-1.412.012-3.369-.036-4.78a9.26,9.26,0,0,1,.869-3.912,32.959,32.959,0,0,0,1.666-3.839h0l.136-.2c-.023-.015-.047-.028-.07-.044a5.851,5.851,0,0,1,1.527-3.307,7.17,7.17,0,0,0,1.087-3.766c.045-.942.1-2.4.072-3.549a13.115,13.115,0,0,0-.616-2.9c-.253-.931-.273-2.26-.543-3.187a18.158,18.158,0,0,0-2.608-5.65,7.125,7.125,0,0,1-.775-1.25.356.356,0,0,0,.038-.029l0-.332-.15.123a7.737,7.737,0,0,1-.636-2.061c-.209-1.489-.355-3.192-.434-4.781a4.273,4.273,0,0,1,1.231-2.861,24.447,24.447,0,0,1,3.73-2.97,3.479,3.479,0,0,1,3.3.109,2.43,2.43,0,0,0,1.087.4c1.383.324,1.531-1.155.652-2.173a10.821,10.821,0,0,1-1.448-2.933,10.057,10.057,0,0,1-.512-4.528l.079-.018-.052-.235a9.351,9.351,0,0,1,2.8-5.941,9.769,9.769,0,0,0,2.1-3.259,34.638,34.638,0,0,0,.8-4.419,8.983,8.983,0,0,1,.362-2.1c1.156-3.284.356-5.307-.218-7.244-.729-2.46-1.822-5.211-3.042-6.338" transform="translate(-27.674 -104.593)" fill="#a6deeb"/>
          <path id="パス_3638" data-name="パス 3638" d="M211.994,563.092a1.068,1.068,0,0,0-1.34.47c-.175.476-.977.7-1.159,1.123a5.106,5.106,0,0,1-.905,1.2A3.683,3.683,0,0,0,207.539,567a3.435,3.435,0,0,0-.616,2.209c.1,1.456.444,1.439.833,1.883,1.026,1.172,3.523,1,3.332-1.847a2.281,2.281,0,0,1,.761-1.883,3.253,3.253,0,0,0,.76-1.268c.113-.332.184-.934.29-1.268a1.332,1.332,0,0,0-.906-1.739" transform="translate(-107.252 -291.84)" fill="#a6deeb"/>
          <path id="パス_3639" data-name="パス 3639" d="M152.088,583.446c-.712-.2-1.494-1.912-1.34-3.223.071-.606-.063-1.25-1.775-.906a4.223,4.223,0,0,1-1.89-.212l-.223-.26c-.032.027-.067.06-.1.088a.539.539,0,0,1-.214-.269c-.031-.107-.118-.9-1.666-.978-.758-.04-1.114-.534-1.521-.725-.756-.354-1.395-.3-1.738.29-.28.478-1.37-.027-1.811-.362-1.118-.851-2.618-.407-3.767.651a15.084,15.084,0,0,1-2.391,1.848c-2.267,1.292-2.051,2.142-2.1,3.911a1.652,1.652,0,0,1-.088.462c-.061-.058-.122-.115-.188-.172l-.316.363c.107.093.2.185.291.277a4.016,4.016,0,0,1-3.9,1.931,3.616,3.616,0,0,0-2.969,1.014c-1.166,1.491-2.2,0-3.043-1.087-1.17-1.508-2.132-3-4.274-1.014a5.245,5.245,0,0,0-1.883,3.657,2.411,2.411,0,0,1-.8,1.992,3.407,3.407,0,0,0-.906,2.065,2.445,2.445,0,0,1-1.521,2.136,12.4,12.4,0,0,0-1.63,1.413c-1.666,1.455-2.757,3.479-5.722,3.948-2.391.378-4.673.9,0,.869,2.1-.012,3.6-.923,5.324,1.3.4.516.683,1.7,1.2,2.1.432.341.387,1.1-.326,1.739-.524.468-.725,1.639-.942,3.006a11.3,11.3,0,0,1-1.413,2.934c-2.29,4.521.17,1.4.724.363.975-1.823,2.154-1.483,2.97-.363.646.887,1.479,2.093,2.028,3.043.843,1.458,2.059.993,2.97,0a3.389,3.389,0,0,1,2.9-.8c1.889.35,1.357-1.551.724-2.173-.969-.954.079-2.214,1.232-3.187a12.594,12.594,0,0,0,2.064-2.717,5.669,5.669,0,0,0,1.2-3.477c.065-2.376,1.735-3.034,3.368-3.694a4.461,4.461,0,0,0,2.028-1.847c.683-1.519,2.173-1.184,3.151-1.232a5.157,5.157,0,0,1,3.622,1.051,7.251,7.251,0,0,1,1.739,1.485c.739,1.175,1.719,1.454,2.245,2.029,1.244,1.354,1.854.378,2.173-.652a11.236,11.236,0,0,1,.978-2.572c.484-.817.76-1.819,1.058-2.366l.184.182.341-.34-.251-.25a27.689,27.689,0,0,1,6.093-5.811,3.2,3.2,0,0,0,1.3-2.825c-.147-1.333-.444-2.431-1.195-2.644" transform="translate(-52.814 -298.795)" fill="#a6deeb"/>
          <path id="パス_3640" data-name="パス 3640" d="M48.46,624.527c-.78-.917-1.522-2.553-2.245-3.622-.541-.8-.944-2.421-2.789-2.355-3.217.115-2.539-2.061-1.413-3.3,3.063-3.357-1.538-7.21-4.056-4.346a3.824,3.824,0,0,1-3.224.689c-1.6-.208-4.047-1.976-5.179-4.021-.764-1.38-2.073-4.591-2.173-4.49a3.164,3.164,0,0,1-1.087.326c-.442.066-.843.629-1.2.906a1.978,1.978,0,0,1-1.992.4c-1.116-.215-2.506.669-3.875,2.1-1.3,1.362-1.768,2.312-1.775,3.115-.011,1.232-1.407,3.206-3.187,2.21a1.864,1.864,0,0,0-2.861,1.629c-.2,1.947-1.136,1.643-2.862,1.63-.97-.007-2.988-.443-2.716,2.426.225,2.378-.189,1.9-2.064,1.123-2.143-.89-5.17,1.228-3.043,3.694.392.454,1.162.849,1.449,1.376a4.17,4.17,0,0,0,3.549,2.245c.814-.018,2.622,1.775,3.187,2.97.547,1.156,0,2.413-1.666,1.811a2.1,2.1,0,0,1-1.521-1.883c-.328-1.9-2.319-2.831-2.825-2.463-.835.606-.424,3.721.652,4.491.945.676,2.637,2.426,1.847,3.875-1.015,1.864.67,1.667,2.245.471.778-.59,2-1.719,2.862-2.535,2.51-2.381,3.314-.741,2.825,1.159-.559,2.175.9,2.6,2.608,1.014.565-.524,1.072-1.313,1.7-1.92,1.374-1.323.7-3.907-2.572-3.078-.649.164-1.911,1.021-2.028-1.087-.011-.2,0-.99.038-1.87l.024.005.093-.472-.1-.021c.04-.909.1-1.818.159-2.205.475-2.913,3.507-1.8,4.419.145.225.48.524,1.034.862,1.605-.131.154-.229.276-.256.311l.381.3c.041-.053.088-.111.139-.172a20.684,20.684,0,0,0,1.989,2.741c1.959,2.2.194,5.424-.253,5.65-1.681.847-.511,1.095.144,1.231.461.1.549,1.543.4,4.382a5.392,5.392,0,0,1-1.666,2.934,34.8,34.8,0,0,0-2.322,2.728l-.023,0,0,.024c-.9,1.163-1.842,2.495-2.8,3.982-.664,1.029-.014,5.994,2.028,6.809,1.777.709,2.047,4.725.217,6.085-2.545,1.89-.945,5.482,1.594,5.179a19.088,19.088,0,0,1,3.549.688c.829.181,2.221.321,2.608-.217,1.775-2.469-.064-3.957-.833-4.853-.919-1.07-3.044-3.07-.471-5.07a18.441,18.441,0,0,1,2.463-1.739c2.065-1.069,2.291.835.724.725-.888-.063-1.228.184-1.2,1.775.054,2.637.054,1.743,1.775,3.151,1.477,1.209,2.139,3.123.217,4.926-3.556,3.336-1.068,4.411,1.774,2.97a20.3,20.3,0,0,1,3.513-2.463c.918-.466,1.322-1.034,1.449-2.608a10.793,10.793,0,0,1,.362-2.789c.389-1.047.93-1.327,1.437-1.239l0,.021.331.084a2.3,2.3,0,0,1,.989,1.026c.56,1.179,2.245,1.521,3.187-.507a12.079,12.079,0,0,0,.761-3.658c.189-2.6-.18-6.129.036-8.729a11.357,11.357,0,0,1,1.014-5.142c.511-1.091,1.156-1.461,1.232-3.876.03-.966.1-4.508,2.209-6.41a5.623,5.623,0,0,0,1.992-3.224,2.946,2.946,0,0,1,.688-1.966c.093.009.159.018.187.023l.066-.23.211-.116a.206.206,0,0,0-.1-.1c.013-.013.021-.024.034-.038a3.253,3.253,0,0,0,.145-4.346" transform="translate(0 -312.603)" fill="#a6deeb"/>
          <path id="パス_3641" data-name="パス 3641" d="M326.058,376.447c.318.094.775.547.616,1.738a9.016,9.016,0,0,0-.145,1.521c.165,2.193,1.243,1.02,1.811.326a38.536,38.536,0,0,0,2.9-3.078c.78-1.236.634-2.572-.8-2.173-.548.152-1.5-.373-.761-2.318a6.363,6.363,0,0,1,.579-1.594c1.644-2.132-1.758-4.242-2.825-1.014a8.421,8.421,0,0,0-.8,2.354c.013,1.42-.5,1.229-1.051,1.811a1.422,1.422,0,0,0,.471,2.427" transform="translate(-168.51 -190.851)" fill="#a6deeb"/>
        </g>
      </g>
      <g id="グループ_495" data-name="グループ 495" transform="translate(151.609 145.679)">
        <g id="グループ_358" data-name="グループ 358" transform="translate(0 0)" clip-path="url(#clip-path-2)">
          <path id="パス_3576" data-name="パス 3576" d="M11.038,30.505l-.028-.025-.031.025Z" transform="translate(19.797 54.958)" fill="#003a70"/>
          <path id="中マド_1" data-name="中マド 1" d="M24.3,67.679h0A77.86,77.86,0,0,1,7.159,47.03,59.515,59.515,0,0,1,.885,30.869,24.685,24.685,0,0,1,.053,25.5C0,24.812,0,24.429,0,24.425a24.323,24.323,0,1,1,47.484,7.449A60.162,60.162,0,0,1,41,47.805,78.325,78.325,0,0,1,24.3,67.678ZM24.323,11.1A12.213,12.213,0,1,0,36.484,23.315,12.2,12.2,0,0,0,24.323,11.1Z" transform="translate(13.024 17.759)" fill="#003a70" stroke="rgba(0,0,0,0)" stroke-miterlimit="10" stroke-width="1"/>
        </g>
      </g>
    </g>
  </g>
</svg>
