<svg xmlns="http://www.w3.org/2000/svg" xmlns:xlink="http://www.w3.org/1999/xlink" width="269.675" height="894.002" viewBox="0 0 269.675 894.002">
  <defs>
    <clipPath id="clip-path">
      <rect id="長方形_284" data-name="長方形 284" width="269.675" height="358.835" fill="#a6deeb"/>
    </clipPath>
    <clipPath id="clip-path-2">
      <rect id="長方形_250" data-name="長方形 250" width="61.669" height="85.465" fill="#003a70"/>
    </clipPath>
  </defs>
  <g id="グループ_594" data-name="グループ 594" transform="translate(-52.662 -2449.533)">
    <g id="グループ_593" data-name="グループ 593">
      <path id="パス_4038" data-name="パス 4038" d="M-65.964,0h4.344l1.944-8.784c.288-1.392.528-2.76.768-4.1h.1c.216,1.344.48,2.712.768,4.1L-56.052,0h4.416l3.288-17.76h-3.384L-53.124-9.1c-.264,1.848-.528,3.744-.792,5.664h-.12c-.384-1.92-.744-3.84-1.128-5.664l-2.064-8.664h-3.024L-62.316-9.1c-.384,1.848-.768,3.768-1.128,5.664h-.1c-.264-1.9-.552-3.792-.816-5.664l-1.416-8.664H-69.4ZM-43.02.336A6.32,6.32,0,0,0-38.964-1.44h.072L-38.628,0h2.88V-7.848c0-3.888-1.752-5.928-5.16-5.928A10.737,10.737,0,0,0-46.524-12l1.272,2.328a7.594,7.594,0,0,1,3.7-1.272c1.656,0,2.232,1.008,2.28,2.328C-44.676-8.04-47-6.528-47-3.648A3.818,3.818,0,0,0-43.02.336Zm1.152-2.76c-1.032,0-1.776-.456-1.776-1.512,0-1.2,1.1-2.088,4.368-2.52v2.712A3.563,3.563,0,0,1-41.868-2.424ZM-32.148,0h3.5V-8.016c.768-1.944,2.04-2.64,3.1-2.64a4.236,4.236,0,0,1,1.392.216l.624-3.048a3.8,3.8,0,0,0-1.584-.288,4.656,4.656,0,0,0-3.816,2.712h-.1l-.24-2.376h-2.88Zm10.464,5.16h3.5V1.08l-.1-2.208A5,5,0,0,0-14.94.336c2.952,0,5.712-2.664,5.712-7.272,0-4.128-1.968-6.84-5.28-6.84a6.38,6.38,0,0,0-3.96,1.728h-.1l-.24-1.392h-2.88Zm5.952-7.728A3.761,3.761,0,0,1-18.18-3.576v-5.9a3.789,3.789,0,0,1,2.664-1.392c1.848,0,2.664,1.416,2.664,3.984C-12.852-3.96-14.1-2.568-15.732-2.568Zm19.1,2.9c3.816,0,5.5-2.736,5.5-6.072V-17.76H5.316V-6.024c0,2.448-.816,3.288-2.376,3.288A2.992,2.992,0,0,1,.3-4.584l-2.448,1.8A5.863,5.863,0,0,0,3.372.336Zm12.792,0A6.32,6.32,0,0,0,20.22-1.44h.072L20.556,0h2.88V-7.848c0-3.888-1.752-5.928-5.16-5.928A10.737,10.737,0,0,0,12.66-12l1.272,2.328a7.594,7.594,0,0,1,3.7-1.272c1.656,0,2.232,1.008,2.28,2.328-5.4.576-7.728,2.088-7.728,4.968A3.818,3.818,0,0,0,16.164.336Zm1.152-2.76c-1.032,0-1.776-.456-1.776-1.512,0-1.2,1.1-2.088,4.368-2.52v2.712A3.563,3.563,0,0,1,17.316-2.424Zm9.72,7.584h3.5V1.08l-.1-2.208A5,5,0,0,0,33.78.336c2.952,0,5.712-2.664,5.712-7.272,0-4.128-1.968-6.84-5.28-6.84a6.38,6.38,0,0,0-3.96,1.728h-.1l-.24-1.392h-2.88Zm5.952-7.728A3.761,3.761,0,0,1,30.54-3.576v-5.9A3.789,3.789,0,0,1,33.2-10.872c1.848,0,2.664,1.416,2.664,3.984C35.868-3.96,34.62-2.568,32.988-2.568Zm12.48,2.9A6.32,6.32,0,0,0,49.524-1.44H49.6L49.86,0h2.88V-7.848c0-3.888-1.752-5.928-5.16-5.928A10.737,10.737,0,0,0,41.964-12l1.272,2.328a7.594,7.594,0,0,1,3.7-1.272c1.656,0,2.232,1.008,2.28,2.328-5.4.576-7.728,2.088-7.728,4.968A3.818,3.818,0,0,0,45.468.336Zm1.152-2.76c-1.032,0-1.776-.456-1.776-1.512,0-1.2,1.1-2.088,4.368-2.52v2.712A3.563,3.563,0,0,1,46.62-2.424ZM56.34,0h3.5V-9.24c1.008-.984,1.7-1.512,2.808-1.512,1.32,0,1.9.744,1.9,2.808V0h3.528V-8.376c0-3.384-1.248-5.4-4.152-5.4a6.194,6.194,0,0,0-4.368,2.112h-.1l-.24-1.776H56.34ZM-30.18,40h4.224l5.448-17.76h-3.6l-2.3,8.64c-.552,1.968-.96,3.744-1.512,5.736h-.12c-.576-1.992-.936-3.768-1.488-5.736l-2.352-8.64H-35.6Zm11.712,0h3.552V22.24h-3.552Zm13.224.336c4.1,0,6.528-2.472,6.528-5.376,0-2.568-1.416-3.936-3.576-4.824l-2.328-.984C-6.132,28.552-7.4,28.1-7.4,26.824c0-1.176,1.008-1.872,2.568-1.872a5.665,5.665,0,0,1,3.768,1.464l1.8-2.232A7.882,7.882,0,0,0-4.836,21.9c-3.6,0-6.144,2.232-6.144,5.136,0,2.592,1.8,4.032,3.6,4.776L-5,32.824c1.584.672,2.664,1.08,2.664,2.4,0,1.248-.984,2.04-2.832,2.04A6.987,6.987,0,0,1-9.684,35.3l-2.04,2.448A9.464,9.464,0,0,0-5.244,40.336ZM4.428,40h11.16V37.024H7.98V32.272h6.24V29.3H7.98v-4.1h7.344V22.24H4.428Zm21.816.336c4.7,0,7.944-3.528,7.944-9.288S30.948,21.9,26.244,21.9,18.3,25.264,18.3,31.048C18.3,36.808,21.54,40.336,26.244,40.336Zm0-3.072c-2.64,0-4.32-2.424-4.32-6.216,0-3.816,1.68-6.1,4.32-6.1s4.32,2.28,4.32,6.1C30.564,34.84,28.884,37.264,26.244,37.264Z" transform="translate(129.254 2603.01)" fill="#003a70"/>
      <g id="グループ_497" data-name="グループ 497" transform="translate(52.662 2449.533)">
        <g id="グループ_494" data-name="グループ 494" transform="translate(0 0)">
          <g id="グループ_493" data-name="グループ 493" clip-path="url(#clip-path)">
            <path id="パス_3636" data-name="パス 3636" d="M450.107,43.332c-1.939.8-3.365.088-4.672-1.919a13.049,13.049,0,0,0-1.34-2.209,4.848,4.848,0,0,1-.8-1.3,5.8,5.8,0,0,0-.978-1.412,3.122,3.122,0,0,1-.761-1.775c-.046-.491-.487-1.7-.616-2.643-.2-1.432-.222-4.147.616-5.034.336-.356.633-1.083,1.34-1.883a4.991,4.991,0,0,0,.978-3.115c.142-3.326.456-2.952-2.355-.4a6.835,6.835,0,0,0-2.463,3.911c-.147.786-.77,1.28-1.557,2.21-.548.646-1.657.793-2.572,1.811-.615.683-3.24.662-5.542.326-1.25-.183-5.1-.551-7.461-.761a11.5,11.5,0,0,1-5.831-2.1c-1.178-.864-2.556-2.027-3.948-2.1-1.2-.063-2.856-1.315-3.911-2.209a7.415,7.415,0,0,0-1.2-.979,6.529,6.529,0,0,1-1.267-1.05,4.867,4.867,0,0,0-1.63-1.087c-1.143-.453-1.995-1.674-3.006-2.753a27.5,27.5,0,0,0-3.984-3.694,15.974,15.974,0,0,1-2.752-2.752c-.757-.9-1.63-1.5-2.355-2.319L385.82,1.066c-1.228-1.388-4.1-1.653-4.2.616l-.036,2.535c-.007.483-.23.548-.978,1.123l-1.413,1.086a4.413,4.413,0,0,0-.289,4.636c.315.527,1,.843,1.05,1.377a5.26,5.26,0,0,0,1.775,2.39,4.631,4.631,0,0,1,1.63,2.318A8.635,8.635,0,0,0,383.9,18.7a2.8,2.8,0,0,1-.181,2.39,3.264,3.264,0,0,0-.652,2.137l-.109,5.65c-.01.513.1.976-.579,1.412-.592.378-1.009,1.079-.072,1.449.535.211.6.683.615,1.557l.109,4.745a2.6,2.6,0,0,1-1.232,2.318,17.935,17.935,0,0,0-1.412,1.2c-.416.351-1.8,2.959-.073,3.042.656.032.525.671.507,1.522l-.109,5.324a4.125,4.125,0,0,1-4.056,3.476c-1.224.048-2.9-.079-4.419.073-2.345.236-1.79-.93-2.644-1.34-1.488-.716-4.28-.573-5.36.4a2.346,2.346,0,0,0-.724,2.9,4.227,4.227,0,0,0,1.739,2.318c1.345,1,.79,3.172-.29,4.528a22.636,22.636,0,0,1-2.753,2.825,5.817,5.817,0,0,1-1.593,1.086,4.1,4.1,0,0,0-1.2.761,7.643,7.643,0,0,1-1.485.8c-.437.225-.745.713-1.485,1.666-.468.6-.44,1.244-.761,1.629a3.051,3.051,0,0,0-.471,2.1v3.875c.079,1.05.019,1.643,1.231,2.173a4.654,4.654,0,0,1,1.449,1.014,10.691,10.691,0,0,0,2.137,1.521c.5.3.7.9,1.086,1.232,1.164,1.006,1.533,1.482,1.63,2.245l.29,2.282a1.864,1.864,0,0,1-.869,1.811l-1.087.833c-1.21.927-1.031,3.676-.47,4.563a4.522,4.522,0,0,0,2.354,2.318c.6.195,1.152.145,1.558.435a1.339,1.339,0,0,0,2.137-.289,3.869,3.869,0,0,0,.905-1.341,6.694,6.694,0,0,0,.254-2.752,3.322,3.322,0,0,1,.471-2.753,18.316,18.316,0,0,1,2.354-2.969c.381-.427.924-.829,1.739.253a2.6,2.6,0,0,0,1.775,1.159,10.147,10.147,0,0,1,1.811.326,2.012,2.012,0,0,0,2.5-.761c.462-.6,1.06-1.077,1.7-1.847.759-.91.981-1.619-.869-1.992a26.55,26.55,0,0,1-4.31-1.558c-.449-.185-1.017-.281-.978-.942l.073-1.231c.063-1.071-.46-1.429-1.485-1.3a16.1,16.1,0,0,1-4.129-.073c-1.465-.311-3.321-1.024-4.057-2.861l-.073-1.811c-.051-1.277-.339-2.618,1.087-3.766.4-.319.576-.429.978-.761a2.659,2.659,0,0,1,1.63-.652,21.133,21.133,0,0,1,2.137-.289,3.41,3.41,0,0,1,3.223,1.593,10.831,10.831,0,0,1,1.413,2.825c.589,1.5.406,1.833,1.883.109l3.912-4.563c.545-.636.542-1.039,2.427-1.485.814-.193,1.723-.328,2.209-.472a17.457,17.457,0,0,1,5.36-.326,4.024,4.024,0,0,1,2.716.834,13.166,13.166,0,0,0,2.5,1.63,12.254,12.254,0,0,1,2.717,2.209,3.607,3.607,0,0,0,1.448,1.014,4.67,4.67,0,0,1,1.268.942,4.116,4.116,0,0,0,1.811,1.123,5.785,5.785,0,0,1,1.449.8,23.545,23.545,0,0,0,5.179,1.232,13.428,13.428,0,0,1,4.492,1.449c2.4,1.407,2.283,1.444,2.39-1.63l.145-4.164c.094-2.7.139-4.823,1.268-6.737a9.5,9.5,0,0,0,1.449-2.209,3.511,3.511,0,0,1,1.521-2.064c.564-.357.853-1.171,1.376-1.812a29.973,29.973,0,0,1,4.636-4.78,13.127,13.127,0,0,0,1.557-1.629c1.913-1.683,3.738-.771,5.686-.037a7.639,7.639,0,0,0,3.115.29c1.523-.068,1.917.2.435-1.593-1.082-1.307.035-4.057,2.065-1.558,1.218,1.5,2.244.6,3.44-.833a8.835,8.835,0,0,1,4.093-2.608c2.152-.709,3-2.171,3.984-3.911.744-1.313,5.814-3.946-1.232-1.051" transform="translate(-184.123 0)" fill="#a6deeb"/>
            <path id="パス_3637" data-name="パス 3637" d="M244.909,234.811c-2.074-1.916-2.912-4.1-4.057-5.9a23.613,23.613,0,0,0-2.544-3.417c.044-.069.068-.114.075-.125l-.405-.221c-.149-.15-.3-.3-.458-.437a14.768,14.768,0,0,1-1.956-2.246,12.287,12.287,0,0,0-2.391-2.68,7.165,7.165,0,0,1-1.123-1.847,5.037,5.037,0,0,1-.362-2.825,27.3,27.3,0,0,0,.109-3.477,4.3,4.3,0,0,0-.942-2.5,8.817,8.817,0,0,1-.254-2.318,24.538,24.538,0,0,1-.145-2.753c-.006-1.907-.905-1.671-2.209-.724a2.849,2.849,0,0,1-3.984-.869,2.04,2.04,0,0,0-3.549,1.593h0a4.271,4.271,0,0,1-.724,2.39c-.541.963-1.783,3.173-.507,3.694a4.761,4.761,0,0,0,5.723-1.666c1.284-1.515,2.757-1.612,2.716.725-.027,1.558.376,4.928-.108,5.686-1.085,1.7-1.456,1.5-2.318.652-1.729-1.708-3.185-.539-3.622.76-.747,2.219-2.16,1.556-2.753.905a4.7,4.7,0,0,1-1.521-2.5c-.11-1.118.181-3.058,0-3.585-.5-1.447-1.241-3.208-3.187-2.137a2.766,2.766,0,0,1-1.883.4c-.9-.3-1.415,1.933-1.449,2.934-.018.523.2,5.318.036,5.939a7.086,7.086,0,0,1-3.368,4.636,17.7,17.7,0,0,1-1.666.652c-.973.487-2.375,1.323-.724,2.825a7.173,7.173,0,0,1,1.159,1.666A6.49,6.49,0,0,0,208,229.7c.035.026.061.056.093.083l-.009.006.266.4.084-.055a3.538,3.538,0,0,1,.616,2.1c.03.8-.1,2.2-.145,3.151a6.61,6.61,0,0,1-2.173,4.31,5.054,5.054,0,0,0-2.246,3.332c-.1,1.675,3.136,3.126,4.528.072a3.129,3.129,0,0,0,.362-1.448c.052-2.874,1.265-1.4.978.072a18.125,18.125,0,0,0-.072,2.39,3.153,3.153,0,0,0,.942,2.39c.607.5.579,1.678.579,2.463,0,1.905.117,5.748,0,7.316a5.753,5.753,0,0,1-.8,2.68,2.959,2.959,0,0,0-.471,1.1h-.048l0,.193a11.511,11.511,0,0,0,.01,2.947,14.137,14.137,0,0,1-2.173,5.9,6.475,6.475,0,0,0-1.594,3.948,3.257,3.257,0,0,1-.264,1.264h0l-.183.156c.027.031.06.057.087.088a5.821,5.821,0,0,1-.762,1.425c-.381.483-.219,3.284-.253,4.635-.084,3.31-2.647,7.363-5.36,8.693-1.149.563-4.893,4.045-5.215,6.628a8.125,8.125,0,0,1-1.377,3.151,14.132,14.132,0,0,0-1.231,3.26,8.475,8.475,0,0,1-1.268,2.716,13.638,13.638,0,0,1-2.282,2.5,14.957,14.957,0,0,0-2.028,1.593,7.49,7.49,0,0,1-1.956,1.449,5.886,5.886,0,0,0-1.811,1.268c-.545.6-1.629.924-2.318,1.557-.875.8-1.681.932-3.44,1.521a2.662,2.662,0,0,1-.43.1l-.222-.253-.365.314h0a4.082,4.082,0,0,0-2.028.422c-.392.3-1.013,1.088-1.485,1.231a1.646,1.646,0,0,0-.833,1.413,2.628,2.628,0,0,1-3.223,2.427c-2.3-.313-3.913-4.1-3.26-4.781.934-.969.512-1.707-.869-2.028-1.518-.353-.553-1.975.507-2.535a9.617,9.617,0,0,0,3.549-2.825,7.938,7.938,0,0,1,1.123-1.594c.37-.265.986-2.424.4-3.259-.9-1.279-3.573-.38-4.2.8-.357.669-.866,1.686-3.549,1.956a5.726,5.726,0,0,0-2.753,1.811,12.508,12.508,0,0,1-1.3,1.521c-1.547,1.528-.518,3.462.29,5,.659,1.253,1.5,7.778-.109,10.141-.4.589-.834,1.582-1.231,2.173-1.147,1.707-2.781,3.8-4.081,5.549l-.121-.091-.29.385.125.095-.162.22a22.627,22.627,0,0,0-2.318,3.259,11.812,11.812,0,0,1-2.282,3.079c-1.33,1.412-.506,2.79.905,4.382.663.747,2.753,3.7-.978,5.723-.558.3-1.881.078-2.39,1.666a3.406,3.406,0,0,1-1.34,1.521c-.508.33-1.215.4-1.883.724a2.045,2.045,0,0,1-1.672.207c0-.018,0-.037.01-.055l-.233-.058h0a2.949,2.949,0,0,1-.893-1.216c-.458-1.052-2.09-.266-2.5,1.123-.468,1.588-1.836,1.174-2.318-1.521a19.2,19.2,0,0,1,.218-2.608,1.412,1.412,0,0,0-1.377-1.739c-.8-.121-1.388.484-2.173,1.594a6.192,6.192,0,0,1-1.232,1.521c-.773.513-1.024.922-1.8,1.095-.015-.028-.034-.055-.048-.083l-.263.137a7.878,7.878,0,0,1-1.436.01c-1.433-.092-2.4-.828-4.6-.76a3.479,3.479,0,0,0-2.872,1.03l-.027-.03-.179.159h0a9.485,9.485,0,0,1-3.115,1.485c-1.734.194-2.456,1.158-3.477,1.521a13.671,13.671,0,0,1-2.862.761,29.386,29.386,0,0,1-4.563,0c-3.218-.286-3.513,1.475-5.578,1.739-.032,0-.068.005-.1.008.005-.053.008-.106.014-.16l-.478-.057c-.01.082-.014.162-.022.243-.769.009-1.7-.076-2.347,0-.932.115-1.95-.78-1.3-1.413.582-.569.629-1.442-1.231-1.412-.973.015-1.937.155-2.354.906a8.381,8.381,0,0,1-2.68,1.992c-1.52.88-2.957,2.329-3.115,3.079a6.2,6.2,0,0,1-1.775,2.5c-1.864,1.831-4.611,3.95-6.41,6.157a21.7,21.7,0,0,1-3.223,3.622,22.846,22.846,0,0,0-2.97,3.405c-1.707,2.225-2.59,2.715-3.875,2.535-1.466-.2-3.082,1.711-3.731,3.043-.47.964-.967,2.326-2.68,2.825-.812.236-1.88.141-2.825.906a3.949,3.949,0,0,1-2.1.181,1.819,1.819,0,0,0-2.245,1.81,16.7,16.7,0,0,1-.326,3.731c-.334.868.15,1.433.833,1.34.244-.033.9.489,1.014.652a.969.969,0,0,0,1.3.362c1.182-.7,1.25.489,1.521.942a7.838,7.838,0,0,1,.434.8c.591,1.352,1.835,1.146,2.68.652a7.841,7.841,0,0,1,1.666-1.3,4.433,4.433,0,0,0,1.377-1.087c.694-.81,3.776-1.277,6.736-.253.317.109,1.141.609,1.593.833a4.751,4.751,0,0,1,1.521,1.3,4.2,4.2,0,0,0,1.449,1.232,2.009,2.009,0,0,1,1.014.579c1.256,1.506.929-1.053,1.05-1.739s-.01-2.929.942-3.767c.313-.275,1.3-2.758.833-3.984a2.261,2.261,0,0,1-.1-.365l.206-.432-.24-.118c.192-2.092,4.028-2.926,5.424-.245a2.451,2.451,0,0,0,4.346.108c.54-.919,2.767-1.8,4.057-1.919A4.989,4.989,0,0,0,97,383.232c.4-.59,2.609-2.017,3.767-1.123.972.751,2.153.494,2.1-.724a1.315,1.315,0,0,1,.733-1.048l.131.077a.254.254,0,0,0-.016-.143,2.109,2.109,0,0,1,1.4-.262c1.122.244,1.757.052,2.1-.507.515-.837,1.782-.173,2.246.434.557.73,3.359.259,3.694-1.159.092-.386.542-1.4,2.825-2.426a15.826,15.826,0,0,0,3.728-3.04l.187-.156,0,0c.928-.658,3.477-.623,5.541-.276,1.506.252,2.862.827,4.382.688a9.111,9.111,0,0,1,3.549.507c2.432.843,4.276-.112,5.469-.29.878-.131,1.332.08,1.574.45l0,.039.032,0a4.8,4.8,0,0,1,.28,1.935,3.175,3.175,0,0,1-1.2,2.608,7.672,7.672,0,0,0-1.123,1.449,6.9,6.9,0,0,1-1.992,1.594c-1.3.679-1.594,1.275-.942,4.165a8.758,8.758,0,0,1,0,3.4,2.7,2.7,0,0,0,1.521,3.115,2.572,2.572,0,0,1,1.956,1.956c.13.615.717,1.058,1.2,1.557a13.04,13.04,0,0,0,.942,1.195c1.362.957,1.744,1.044,2.064,1.087a5.651,5.651,0,0,1,2.608,1.3,2.389,2.389,0,0,0,1.593.724c.468-.007.946.4,1.2.434,1.2.158,1.639-.732,2.173-1.195a4.6,4.6,0,0,1,2.064-1.449c1.336-.323,1.112-1.832,1.06-3.611.066.014.128.03.2.044l.1-.472c-.105-.021-.2-.045-.3-.068-.015-3.622-.09-2.848,2.5-4.984,1.937-1.6,2.716-1.979,2.535-4.274-.188-2.391,1.283-2.422,2.608-3.259s3.515-1.118,4.817-1.666c.774-.326,1.735.031,2.137-.145,5.473-2.4-.395-5.764-1.956-6.555a10.37,10.37,0,0,1-2.282-1.3,16.183,16.183,0,0,0-2.5-1.666c-1.064-.641-.615-1.639-.145-2.535.357-.679,1.1-2.032,1.522-2.789a6.746,6.746,0,0,1,2.419-1.7l.237-.075v0c1.7-.561,2.013-.831,1.836,1.632a5.059,5.059,0,0,0,.507,2.68c1.627,2.657,1.5,1.358,4.274.435a7.855,7.855,0,0,1,1.594-.362c3.384-.306,1.663,1.677.869,2.173-5.205,3.252-1.6,2.182.724,1.3,1.447-.546,5.709-1.444,6.121-1.521,3.094-.578,8.349.052,11.481-.362,1.229-.162,2.131.553,2.463-2.209A3.633,3.633,0,0,1,196.92,364a5.428,5.428,0,0,0,1.2-3.694,2.838,2.838,0,0,1,1.666-2.39c.613-.207,1.492-.935,2.717-1.485s3-.719,2.861,2.065c-.041.843.012,3.064-.072,4.491-.128,2.174,2.1,5.275,3.042,2.825.231-.6-.378-1.139,1.232-2.1.554-.332.958-1.167,1.521-1.484a2.526,2.526,0,0,0,1.231-2.572,22.9,22.9,0,0,1,0-2.9,2.814,2.814,0,0,0-1.05-2.064,1.784,1.784,0,0,1-.443-1.058v0l0-.239-.024,0a6,6,0,0,1,.244-1.85,4.3,4.3,0,0,1,2.173-2.5c1.005-.552,2.585-.416,3.73-.471a1.823,1.823,0,0,1,2.173,1.738c.5,2.683,5.2.261,2.028-3.622a5.552,5.552,0,0,1-1.087-2.752c-.124-1.578-.078-2.994,1.521-3.73.115-.053.244-.109.374-.164,0,.007,0,.013,0,.02l.482,0c0-.075,0-.146,0-.219.387-.16.781-.321,1.1-.468,2.4-1.1,5.914-.165,3.44,2.607-.394.441-1.406,1.475-1.847,1.919-.747.754-1.553.168-1.557,3.4,0,1.326-.04,3.131.036,4.455a6.848,6.848,0,0,0,.507,1.919,3.546,3.546,0,0,1,.217,1.847c-.163,1.361.652,1.857,1.521,1.738a2.872,2.872,0,0,0,2.391-2.173,3.126,3.126,0,0,1,1.7-2.427,23.263,23.263,0,0,1,2.717-1.92c1.209-.506,2.129-1.18,1.883-4.093-.122-1.448.213-3.322.181-4.491-.047-1.687-.259-3.768,2.137-4.744.873-.356,1.793-1.044,2.644-1.449,1.184-.563,1.507-1.137,1.415-1.69l-.015-.289-.067,0a4.641,4.641,0,0,0-1.079-1.356c-.79-.777-1.957-1.985-2.68-2.825a11.424,11.424,0,0,1-2.572-7.026c.006-1.412.012-3.369-.036-4.78a9.26,9.26,0,0,1,.869-3.912,32.959,32.959,0,0,0,1.666-3.839h0l.136-.2c-.023-.015-.047-.028-.07-.044a5.851,5.851,0,0,1,1.527-3.307,7.17,7.17,0,0,0,1.087-3.766c.045-.942.1-2.4.072-3.549a13.115,13.115,0,0,0-.616-2.9c-.253-.931-.273-2.26-.543-3.187a18.158,18.158,0,0,0-2.608-5.65,7.125,7.125,0,0,1-.775-1.25.356.356,0,0,0,.038-.029l0-.332-.15.123a7.737,7.737,0,0,1-.636-2.061c-.209-1.489-.355-3.192-.434-4.781a4.273,4.273,0,0,1,1.231-2.861,24.447,24.447,0,0,1,3.73-2.97,3.479,3.479,0,0,1,3.3.109,2.43,2.43,0,0,0,1.087.4c1.383.324,1.531-1.155.652-2.173a10.821,10.821,0,0,1-1.448-2.933,10.057,10.057,0,0,1-.512-4.528l.079-.018-.052-.235a9.351,9.351,0,0,1,2.8-5.941,9.769,9.769,0,0,0,2.1-3.259,34.638,34.638,0,0,0,.8-4.419,8.983,8.983,0,0,1,.362-2.1c1.156-3.284.356-5.307-.218-7.244-.729-2.46-1.822-5.211-3.042-6.338" transform="translate(-27.674 -104.593)" fill="#a6deeb"/>
            <path id="パス_3638" data-name="パス 3638" d="M211.994,563.092a1.068,1.068,0,0,0-1.34.47c-.175.476-.977.7-1.159,1.123a5.106,5.106,0,0,1-.905,1.2A3.683,3.683,0,0,0,207.539,567a3.435,3.435,0,0,0-.616,2.209c.1,1.456.444,1.439.833,1.883,1.026,1.172,3.523,1,3.332-1.847a2.281,2.281,0,0,1,.761-1.883,3.253,3.253,0,0,0,.76-1.268c.113-.332.184-.934.29-1.268a1.332,1.332,0,0,0-.906-1.739" transform="translate(-107.252 -291.84)" fill="#a6deeb"/>
            <path id="パス_3639" data-name="パス 3639" d="M152.088,583.446c-.712-.2-1.494-1.912-1.34-3.223.071-.606-.063-1.25-1.775-.906a4.223,4.223,0,0,1-1.89-.212l-.223-.26c-.032.027-.067.06-.1.088a.539.539,0,0,1-.214-.269c-.031-.107-.118-.9-1.666-.978-.758-.04-1.114-.534-1.521-.725-.756-.354-1.395-.3-1.738.29-.28.478-1.37-.027-1.811-.362-1.118-.851-2.618-.407-3.767.651a15.084,15.084,0,0,1-2.391,1.848c-2.267,1.292-2.051,2.142-2.1,3.911a1.652,1.652,0,0,1-.088.462c-.061-.058-.122-.115-.188-.172l-.316.363c.107.093.2.185.291.277a4.016,4.016,0,0,1-3.9,1.931,3.616,3.616,0,0,0-2.969,1.014c-1.166,1.491-2.2,0-3.043-1.087-1.17-1.508-2.132-3-4.274-1.014a5.245,5.245,0,0,0-1.883,3.657,2.411,2.411,0,0,1-.8,1.992,3.407,3.407,0,0,0-.906,2.065,2.445,2.445,0,0,1-1.521,2.136,12.4,12.4,0,0,0-1.63,1.413c-1.666,1.455-2.757,3.479-5.722,3.948-2.391.378-4.673.9,0,.869,2.1-.012,3.6-.923,5.324,1.3.4.516.683,1.7,1.2,2.1.432.341.387,1.1-.326,1.739-.524.468-.725,1.639-.942,3.006a11.3,11.3,0,0,1-1.413,2.934c-2.29,4.521.17,1.4.724.363.975-1.823,2.154-1.483,2.97-.363.646.887,1.479,2.093,2.028,3.043.843,1.458,2.059.993,2.97,0a3.389,3.389,0,0,1,2.9-.8c1.889.35,1.357-1.551.724-2.173-.969-.954.079-2.214,1.232-3.187a12.594,12.594,0,0,0,2.064-2.717,5.669,5.669,0,0,0,1.2-3.477c.065-2.376,1.735-3.034,3.368-3.694a4.461,4.461,0,0,0,2.028-1.847c.683-1.519,2.173-1.184,3.151-1.232a5.157,5.157,0,0,1,3.622,1.051,7.251,7.251,0,0,1,1.739,1.485c.739,1.175,1.719,1.454,2.245,2.029,1.244,1.354,1.854.378,2.173-.652a11.236,11.236,0,0,1,.978-2.572c.484-.817.76-1.819,1.058-2.366l.184.182.341-.34-.251-.25a27.689,27.689,0,0,1,6.093-5.811,3.2,3.2,0,0,0,1.3-2.825c-.147-1.333-.444-2.431-1.195-2.644" transform="translate(-52.814 -298.795)" fill="#a6deeb"/>
            <path id="パス_3640" data-name="パス 3640" d="M48.46,624.527c-.78-.917-1.522-2.553-2.245-3.622-.541-.8-.944-2.421-2.789-2.355-3.217.115-2.539-2.061-1.413-3.3,3.063-3.357-1.538-7.21-4.056-4.346a3.824,3.824,0,0,1-3.224.689c-1.6-.208-4.047-1.976-5.179-4.021-.764-1.38-2.073-4.591-2.173-4.49a3.164,3.164,0,0,1-1.087.326c-.442.066-.843.629-1.2.906a1.978,1.978,0,0,1-1.992.4c-1.116-.215-2.506.669-3.875,2.1-1.3,1.362-1.768,2.312-1.775,3.115-.011,1.232-1.407,3.206-3.187,2.21a1.864,1.864,0,0,0-2.861,1.629c-.2,1.947-1.136,1.643-2.862,1.63-.97-.007-2.988-.443-2.716,2.426.225,2.378-.189,1.9-2.064,1.123-2.143-.89-5.17,1.228-3.043,3.694.392.454,1.162.849,1.449,1.376a4.17,4.17,0,0,0,3.549,2.245c.814-.018,2.622,1.775,3.187,2.97.547,1.156,0,2.413-1.666,1.811a2.1,2.1,0,0,1-1.521-1.883c-.328-1.9-2.319-2.831-2.825-2.463-.835.606-.424,3.721.652,4.491.945.676,2.637,2.426,1.847,3.875-1.015,1.864.67,1.667,2.245.471.778-.59,2-1.719,2.862-2.535,2.51-2.381,3.314-.741,2.825,1.159-.559,2.175.9,2.6,2.608,1.014.565-.524,1.072-1.313,1.7-1.92,1.374-1.323.7-3.907-2.572-3.078-.649.164-1.911,1.021-2.028-1.087-.011-.2,0-.99.038-1.87l.024.005.093-.472-.1-.021c.04-.909.1-1.818.159-2.205.475-2.913,3.507-1.8,4.419.145.225.48.524,1.034.862,1.605-.131.154-.229.276-.256.311l.381.3c.041-.053.088-.111.139-.172a20.684,20.684,0,0,0,1.989,2.741c1.959,2.2.194,5.424-.253,5.65-1.681.847-.511,1.095.144,1.231.461.1.549,1.543.4,4.382a5.392,5.392,0,0,1-1.666,2.934,34.8,34.8,0,0,0-2.322,2.728l-.023,0,0,.024c-.9,1.163-1.842,2.495-2.8,3.982-.664,1.029-.014,5.994,2.028,6.809,1.777.709,2.047,4.725.217,6.085-2.545,1.89-.945,5.482,1.594,5.179a19.088,19.088,0,0,1,3.549.688c.829.181,2.221.321,2.608-.217,1.775-2.469-.064-3.957-.833-4.853-.919-1.07-3.044-3.07-.471-5.07a18.441,18.441,0,0,1,2.463-1.739c2.065-1.069,2.291.835.724.725-.888-.063-1.228.184-1.2,1.775.054,2.637.054,1.743,1.775,3.151,1.477,1.209,2.139,3.123.217,4.926-3.556,3.336-1.068,4.411,1.774,2.97a20.3,20.3,0,0,1,3.513-2.463c.918-.466,1.322-1.034,1.449-2.608a10.793,10.793,0,0,1,.362-2.789c.389-1.047.93-1.327,1.437-1.239l0,.021.331.084a2.3,2.3,0,0,1,.989,1.026c.56,1.179,2.245,1.521,3.187-.507a12.079,12.079,0,0,0,.761-3.658c.189-2.6-.18-6.129.036-8.729a11.357,11.357,0,0,1,1.014-5.142c.511-1.091,1.156-1.461,1.232-3.876.03-.966.1-4.508,2.209-6.41a5.623,5.623,0,0,0,1.992-3.224,2.946,2.946,0,0,1,.688-1.966c.093.009.159.018.187.023l.066-.23.211-.116a.206.206,0,0,0-.1-.1c.013-.013.021-.024.034-.038a3.253,3.253,0,0,0,.145-4.346" transform="translate(0 -312.603)" fill="#a6deeb"/>
            <path id="パス_3641" data-name="パス 3641" d="M326.058,376.447c.318.094.775.547.616,1.738a9.016,9.016,0,0,0-.145,1.521c.165,2.193,1.243,1.02,1.811.326a38.536,38.536,0,0,0,2.9-3.078c.78-1.236.634-2.572-.8-2.173-.548.152-1.5-.373-.761-2.318a6.363,6.363,0,0,1,.579-1.594c1.644-2.132-1.758-4.242-2.825-1.014a8.421,8.421,0,0,0-.8,2.354c.013,1.42-.5,1.229-1.051,1.811a1.422,1.422,0,0,0,.471,2.427" transform="translate(-168.51 -190.851)" fill="#a6deeb"/>
          </g>
        </g>
        <g id="グループ_495" data-name="グループ 495" transform="translate(151.609 145.679)">
          <g id="グループ_358" data-name="グループ 358" transform="translate(0 0)" clip-path="url(#clip-path-2)">
            <path id="パス_3576" data-name="パス 3576" d="M11.038,30.505l-.028-.025-.031.025Z" transform="translate(19.797 54.958)" fill="#003a70"/>
            <path id="中マド_1" data-name="中マド 1" d="M24.3,67.679h0A77.86,77.86,0,0,1,7.159,47.03,59.515,59.515,0,0,1,.885,30.869,24.685,24.685,0,0,1,.053,25.5C0,24.812,0,24.429,0,24.425a24.323,24.323,0,1,1,47.484,7.449A60.162,60.162,0,0,1,41,47.805,78.325,78.325,0,0,1,24.3,67.678ZM24.323,11.1A12.213,12.213,0,1,0,36.484,23.315,12.2,12.2,0,0,0,24.323,11.1Z" transform="translate(13.024 17.759)" fill="#003a70" stroke="rgba(0,0,0,0)" stroke-miterlimit="10" stroke-width="1"/>
          </g>
        </g>
      </g>
    </g>
    <g id="グループ_415" data-name="グループ 415" transform="translate(-228.5 446.23)">
      <path id="パス_4041" data-name="パス 4041" d="M-51.822-2.5c-.018-.846-.054-2.268-.072-3.276,1.242-.576,2.394-1.062,3.312-1.4.54-.216,1.314-.5,1.8-.648l-.7-1.656c-.576.288-1.1.522-1.692.792-.846.378-1.764.756-2.862,1.278a2.347,2.347,0,0,0-2.376-1.512,5.25,5.25,0,0,0-2.268.522,13.013,13.013,0,0,0,1.35-2.322,54.481,54.481,0,0,0,5.868-.486V-12.87a41.213,41.213,0,0,1-5.274.522c.252-.774.4-1.458.5-1.926l-1.854-.144a10.747,10.747,0,0,1-.414,2.142h-1.044a26.143,26.143,0,0,1-3.06-.2V-10.8c.99.072,2.232.108,2.97.108h.522a18.562,18.562,0,0,1-4.032,5.2l1.53,1.152a19.171,19.171,0,0,1,1.638-1.908,4.528,4.528,0,0,1,2.952-1.278,1.389,1.389,0,0,1,1.44.882C-55.638-5.6-57.78-4.212-57.78-2.016-57.78.2-55.71.81-53.046.81A45.348,45.348,0,0,0-48.1.5l.054-1.818a30.016,30.016,0,0,1-4.95.468c-1.8,0-2.952-.234-2.952-1.458,0-1.044.954-1.854,2.466-2.7,0,.882-.018,1.89-.072,2.5Zm12.96-1.926h2.61V-5.886h-2.61V-8.172h2.808v-.306a9.676,9.676,0,0,1,.828.7,6.781,6.781,0,0,0,3.2-5.184h2.358c-.108,2.016-.234,2.808-.45,3.06a.64.64,0,0,1-.54.18,15.354,15.354,0,0,1-1.584-.072,3.72,3.72,0,0,1,.432,1.422,16.348,16.348,0,0,0,1.944-.018,1.563,1.563,0,0,0,1.116-.522c.4-.468.576-1.728.72-4.86.018-.2.018-.612.018-.612h-7.848v1.422h2.25a5.147,5.147,0,0,1-2.448,3.924v-.63H-39.1v-1.962h2.7v-1.458h-2.7V-15.1h-1.53v2.016H-43.4v1.458h2.772v1.962h-3.132v1.494h3.4v6.066a5.3,5.3,0,0,1-1.314-2.34c.036-.81.072-1.638.09-2.5l-1.494-.108c-.036,3.114-.18,5.94-1.17,7.722a9.483,9.483,0,0,1,1.35.756A10.315,10.315,0,0,0-41.958-1.8c1.35,2.25,3.51,2.772,7.11,2.772h6.894A5.638,5.638,0,0,1-27.27-.684c-1.332.054-6.516.054-7.6.036a11.546,11.546,0,0,1-4-.5Zm5.112-1.71h3.69v2.826h-3.69Zm-1.566,4.194H-28.4V-7.506h-6.912Zm14.238-12.384-.27,1.656c2.142.378,5.346.774,7.182.918l.234-1.656A66.45,66.45,0,0,1-21.078-14.328Zm7.614,5.346-1.062-1.188a4.52,4.52,0,0,1-.9.2c-1.422.18-5.508.414-6.462.432-.594,0-1.188-.018-1.6-.054l.162,1.98c.4-.072.9-.144,1.476-.2,1.08-.09,3.69-.306,5.022-.378-1.692,1.746-6.03,6.066-6.84,6.858A8.647,8.647,0,0,1-24.7-.4L-23,.774a50.336,50.336,0,0,1,3.42-3.8,1.937,1.937,0,0,1,1.242-.684c.45,0,.81.288,1.026.9.162.486.4,1.44.576,1.98C-16.344.342-15.426.684-13.9.684a28.211,28.211,0,0,0,3.42-.252l.108-1.89a16.473,16.473,0,0,1-3.42.36c-.81,0-1.224-.288-1.4-.918-.18-.522-.4-1.314-.558-1.818a1.669,1.669,0,0,0-1.242-1.26,2.123,2.123,0,0,0-.666-.09c.558-.594,2.412-2.286,3.132-2.952C-14.256-8.352-13.86-8.694-13.464-8.982ZM-.342-.81c-1.206,0-2.124-.486-2.124-1.26,0-.558.54-.99,1.278-.99A2.147,2.147,0,0,1,.918-.882,9.318,9.318,0,0,1-.342-.81ZM3.42-13.716a6.3,6.3,0,0,1-1.134.18c-.972.09-5,.2-5.94.2a12.836,12.836,0,0,1-1.422-.09l.054,1.854c.4-.054.864-.09,1.314-.126.936-.054,3.978-.18,4.914-.216-.9.774-2.952,2.484-3.942,3.312C-3.78-7.74-6.012-5.868-7.4-4.734L-6.084-3.4c2.106-2.232,3.8-3.564,6.642-3.564,2.178,0,3.87,1.188,3.87,2.862a2.911,2.911,0,0,1-1.872,2.79A3.563,3.563,0,0,0-1.188-4.446,2.753,2.753,0,0,0-4.14-1.908C-4.14-.306-2.484.81-.018.81c4,0,6.282-2.034,6.282-4.9,0-2.484-2.214-4.32-5.2-4.32A6.634,6.634,0,0,0-1.044-8.1c1.26-1.044,3.42-2.934,4.338-3.582.324-.234.738-.5,1.1-.738ZM13-15.1A14.152,14.152,0,0,1,9.342-11.43a9.541,9.541,0,0,1,.9,1.206,18.613,18.613,0,0,0,4.266-4.3Zm.4,3.726a15.753,15.753,0,0,1-4.23,4.788,12.737,12.737,0,0,1,.918,1.53,15.186,15.186,0,0,0,1.764-1.674v8.19H13.41V-8.6a20.757,20.757,0,0,0,1.458-2.25ZM21.4-4.662h3.78V-6.228H21.4V-9.414h4.266v-1.6h-2.5a35.3,35.3,0,0,0,1.818-3.528l-1.62-.558a22.356,22.356,0,0,1-1.692,3.636l1.206.45H18.594L19.6-11.5a22.487,22.487,0,0,0-1.89-3.474l-1.386.576a27.4,27.4,0,0,1,1.728,3.384H15.426v1.6h4.338V-1.1A5.128,5.128,0,0,1,17.46-4.1a29.005,29.005,0,0,0,.378-3.06L16.164-7.29C15.966-4.014,15.408-1.3,13.7.342a8.957,8.957,0,0,1,1.3,1.152,8.987,8.987,0,0,0,1.926-3.4c1.332,2.394,3.312,3.042,5.886,3.042H25.6a6.918,6.918,0,0,1,.5-1.6c-.576.018-2.718.018-3.168.018A10.378,10.378,0,0,1,21.4-.558ZM38.2-10.638a16.8,16.8,0,0,1-.792,1.71h-3.8l.522-.108a7.573,7.573,0,0,0-.774-1.6Zm5.418,7.884v-1.4H36.522v-1.1h5.526v-1.26H36.522V-7.6h6.372V-8.928H39.078c.306-.5.666-1.1,1.008-1.71H43.56v-1.4H40.968a28.163,28.163,0,0,0,1.494-2.448l-1.728-.432a15.689,15.689,0,0,1-1.26,2.664l.684.216H38.214V-15.12H36.63v3.078H34.848V-15.12H33.282v3.078H31.3l.918-.342a12.512,12.512,0,0,0-1.44-2.574l-1.458.486a13.5,13.5,0,0,1,1.314,2.43H27.972v1.4h4.086l-.432.072a8.917,8.917,0,0,1,.756,1.638h-3.69V-7.6h6.192v1.08h-5.31v1.26h5.31v1.1H27.9v1.4h5.562A17.464,17.464,0,0,1,27.4-.252a7.512,7.512,0,0,1,1.1,1.422,17.879,17.879,0,0,0,6.39-3.24V1.422h1.638V-2.2a16.057,16.057,0,0,0,6.444,3.384A7.517,7.517,0,0,1,44.082-.306a16.53,16.53,0,0,1-6.1-2.448Zm14.112-8.838H49.788V-13.14h7.938Zm1.764-2.88H48.114v4.212H59.49ZM49-3.87h9.45v1.062H49Zm0-2.16h9.45v1.044H49Zm0-2.16h9.45v1.026H49ZM60.192-1.6V-9.4H47.34V-1.6h3.114a21.067,21.067,0,0,1-5,1.818,10.085,10.085,0,0,1,1.26,1.206A22.664,22.664,0,0,0,52.29-.756L51.03-1.6h5.2L54.918-.63a47.911,47.911,0,0,1,5.67,2.07L62.064.27A52.573,52.573,0,0,0,56.754-1.6Z" transform="translate(416 2553)" fill="#003a70"/>
      <path id="パス_4040" data-name="パス 4040" d="M-79.8,0h23.75V-4.9h-9.2c-1.8,0-4.1.15-6,.35,7.8-7.45,13.45-14.8,13.45-21.9,0-6.65-4.35-11.05-11.1-11.05-4.8,0-8.05,2.1-11.2,5.5l3.25,3.2c1.95-2.25,4.35-4.1,7.25-4.1,4.1,0,6.25,2.75,6.25,6.75,0,6.05-5.6,13.2-16.45,22.8Zm39.7.65c6.45,0,12.4-4.6,12.4-12.75,0-8.05-5.05-11.7-11.2-11.7a10.375,10.375,0,0,0-5.05,1.3l.85-9.45h13.65V-36.8H-48.1l-1.1,17.45,2.8,1.85c2.15-1.4,3.55-2.1,5.9-2.1,4.2,0,7,2.8,7,7.7s-3.15,7.85-7.3,7.85A11.775,11.775,0,0,1-49.4-8l-2.75,3.75A16.286,16.286,0,0,0-40.1.65Zm29.35,0c7.2,0,11.9-6.4,11.9-19.2,0-12.7-4.7-18.95-11.9-18.95-7.25,0-11.9,6.2-11.9,18.95C-22.65-5.75-18,.65-10.75.65Zm0-4.55c-3.75,0-6.4-4-6.4-14.65,0-10.55,2.65-14.4,6.4-14.4s6.4,3.85,6.4,14.4C-4.35-7.9-7-3.9-10.75-3.9ZM17.75.65c7.2,0,11.9-6.4,11.9-19.2,0-12.7-4.7-18.95-11.9-18.95-7.25,0-11.9,6.2-11.9,18.95C5.85-5.75,10.5.65,17.75.65Zm0-4.55c-3.75,0-6.4-4-6.4-14.65,0-10.55,2.65-14.4,6.4-14.4s6.4,3.85,6.4,14.4C24.15-7.9,21.5-3.9,17.75-3.9Zm36-36.7C53.4-34,53.7-10.8,33.7-.15A15.914,15.914,0,0,1,37.55,3.5c11.6-6.65,16.85-17.45,19.25-27,2.6,9.65,8.15,21.1,20.25,26.95A15.063,15.063,0,0,1,80.6-.45C61.9-9.05,59.3-31.5,58.85-38.15c.1-.9.1-1.75.15-2.45Z" transform="translate(416 2516)" fill="#003a70"/>
      <path id="パス_4039" data-name="パス 4039" d="M-26.172-5.76V-9.108h2.952V-5.76Zm4.644,2.322v-5.67h2.718v-1.6h-2.718v-4.068H-23.22v4.068h-2.952v-4.266h-1.674v4.266H-30.8V-14.6h-1.71v3.888h-2.628v1.6h2.628V1.422h1.71V.18H-19.44V-1.458H-30.8v-7.65h2.952v5.742h1.674v-.828h2.952v.756Zm7.992-6.768h3.672v1.674h-3.672Zm0-2.934h3.672V-11.5h-3.672ZM-4.464-11.5H-8.172V-13.14h3.708Zm0,2.97H-8.172v-1.674h3.708Zm1.728,1.368v-7.344H-15.192v7.344h3.258A13.288,13.288,0,0,1-17.19-4.248a6.857,6.857,0,0,1,1.116,1.386,15.752,15.752,0,0,0,3.582-1.854v.936c0,1.26-.342,2.9-3.4,3.96A5.11,5.11,0,0,1-14.76,1.548c3.546-1.368,3.978-3.564,3.978-5.274V-4.878h-1.494A12.082,12.082,0,0,0-9.882-7.164h1.926A11.47,11.47,0,0,0-5.6-4.86H-6.93V1.386H-5.2V-4.572A14,14,0,0,0-1.818-2.934,7.16,7.16,0,0,1-.684-4.356,12.4,12.4,0,0,1-6.012-7.164ZM9.828-5.958v-4.356h4.68v4.356Zm-6.408,0v-4.356H8.082v4.356Zm6.408-5.994v-3.132H8.082v3.132H1.746v8.694H3.42V-4.32H8.082V1.4H9.828V-4.32h4.68v.972h1.746v-8.6ZM31.23-9.36l-1.08.468a17.022,17.022,0,0,1,1.44,2.52l1.116-.5A25.13,25.13,0,0,0,31.23-9.36Zm2-.774-1.08.486A16.893,16.893,0,0,1,33.66-7.164l1.1-.54A28.166,28.166,0,0,0,33.228-10.134ZM19.422-12.042l.18,1.962c2-.432,6.372-.864,7.92-1.026a7.061,7.061,0,0,0-3.006,5.778c0,3.924,3.654,5.8,7.146,5.976L32.31-1.26c-2.934-.144-5.958-1.206-5.958-4.464a5.893,5.893,0,0,1,3.924-5.346,17.086,17.086,0,0,1,3.474-.252l-.018-1.818c-1.206.036-3.006.144-4.9.306-3.276.27-6.462.576-7.758.7C20.718-12.1,20.106-12.06,19.422-12.042Z" transform="translate(416 2452)" fill="#003a70"/>
    </g>
    <g id="グループ_588" data-name="グループ 588">
      <path id="パス_4046" data-name="パス 4046" d="M-50.8-18c-3.85,0-5.95-2.7-5.95-7.4,0-4.8,2.5-7.65,5.65-7.65,4,0,6.75,3.3,7.3,10.55C-46-19.3-48.55-18-50.8-18ZM-61.5-3.25A12.629,12.629,0,0,0-52.1.65c7.1,0,13.7-5.8,13.7-20.3,0-12.15-5.7-17.85-12.75-17.85-5.95,0-10.95,4.8-10.95,12.1,0,7.7,4.15,11.55,10.3,11.55a11.064,11.064,0,0,0,8.1-4.3c-.35,10.5-4.2,14.1-8.65,14.1A8.2,8.2,0,0,1-58.4-6.8ZM3.9-30.85a22.734,22.734,0,0,1-3.45.3h-10.8c.1-1.55.2-3.2.25-4.9.05-1.2.15-3.05.25-4.2H-15.7a31.881,31.881,0,0,1,.35,4.35c0,1.65-.05,3.25-.15,4.75h-8.05c-1.95,0-4.2-.15-6.1-.3v5.2c1.9-.15,4.25-.2,6.1-.2h7.6c-1.25,9.05-4.3,15.1-9.15,19.65A26.682,26.682,0,0,1-30.85-2l4.6,3.75c8.6-6.05,13.55-13.7,15.4-27.6H1.95c0,5.4-.65,16.7-2.35,20.2a2.642,2.642,0,0,1-2.85,1.7,57.244,57.244,0,0,1-7.25-.6L-9.9.7c2.5.15,5.45.35,8.15.35,3.05,0,4.75-1.1,5.8-3.4,2.2-4.9,2.85-19.2,3-24.25.05-.65.15-1.7.3-2.55ZM48.15-10.5l3.05-1.85a35.267,35.267,0,0,0-4.65-5.2l-2.95,1.6a31.862,31.862,0,0,1,4.45,5.45h-6.9v-7.4H50.5v-3.95H41.15V-27.9H51.6V-32H26.65v4.1H36.8v6.05H27.95v3.95H36.8v7.4H25.95v3.85H52.6V-10.5ZM23.25-2.8V-35.5h31.7V-2.8Zm-4.7-37V3.95h4.7V1.5h31.7V3.95H59.9V-39.8Z" transform="translate(187.5 3339.585)" fill="#003a70"/>
      <path id="パス_4045" data-name="パス 4045" d="M-64.008-9.774a8,8,0,0,1,.108,1.44c0,2.988-.414,5.256-2.988,6.912a6.834,6.834,0,0,1-1.728.882L-66.96.81c4.734-2.43,5-5.886,5-10.584Zm8.19-3.456a9.316,9.316,0,0,1-1.512.126H-67.392a16.094,16.094,0,0,1-2.106-.162v2c.774-.054,1.4-.108,2.106-.108h9.882A11.191,11.191,0,0,1-61.182-7.65l1.494,1.206a17.825,17.825,0,0,0,4.41-4.968c.144-.216.432-.558.594-.756Zm14.454-.378-1.224.522a17.246,17.246,0,0,1,1.62,2.826l1.26-.558A31.693,31.693,0,0,0-41.364-13.608Zm2.412-.864-1.242.522A17.493,17.493,0,0,1-38.5-11.178l1.26-.558A26.365,26.365,0,0,0-38.952-14.472ZM-49.1-13.9l-1.026,1.548c1.1.63,3.024,1.89,3.942,2.556l1.08-1.548C-45.972-11.952-47.988-13.284-49.1-13.9ZM-52.092-1.08-51.03.774a21.09,21.09,0,0,0,5.976-2.232A21.428,21.428,0,0,0-38.016-7.9l-1.1-1.908a18.38,18.38,0,0,1-6.894,6.678A19.767,19.767,0,0,1-52.092-1.08Zm.252-8.748L-52.866-8.28a44.689,44.689,0,0,1,4,2.52l1.044-1.6C-48.672-7.956-50.724-9.216-51.84-9.828Zm23.112.054a8,8,0,0,1,.108,1.44c0,2.988-.414,5.256-2.988,6.912a6.834,6.834,0,0,1-1.728.882L-31.68.81c4.734-2.43,5-5.886,5-10.584Zm8.19-3.456a9.316,9.316,0,0,1-1.512.126H-32.112a16.094,16.094,0,0,1-2.106-.162v2c.774-.054,1.4-.108,2.106-.108h9.882A11.191,11.191,0,0,1-25.9-7.65l1.494,1.206A17.825,17.825,0,0,0-20-11.412c.144-.216.432-.558.594-.756Zm9,10.746A24.5,24.5,0,0,1-8.154,1.08L-6.642-.108A25.825,25.825,0,0,0-10.1-3.492ZM-1.386-8.766v-1.71H-8.838c.162-1.638.18-3.24.2-4.626h-1.818c-.018,1.368,0,2.97-.18,4.626h-6.57v1.71h6.336A11.2,11.2,0,0,1-17.73.018,5.121,5.121,0,0,1-16.452,1.4,12.479,12.479,0,0,0-9.288-7.722C-7.92-3.528-5.706-.288-2.178,1.44A8.08,8.08,0,0,1-.936-.108C-4.392-1.6-6.678-4.842-7.866-8.766ZM16.7-6.39H9.486v-5.9h6.192v-1.638H1.566v1.638H7.758v5.9H.63V-4.7H7.758v6.12H9.486V-4.7H16.7Zm-13.968-4.7A19.569,19.569,0,0,1,4.23-7.128l1.6-.54a18.05,18.05,0,0,0-1.584-3.888ZM12.654-7.11a34.537,34.537,0,0,0,2.106-4.032l-1.782-.486a24.146,24.146,0,0,1-1.764,4.05ZM22.59-8.388a15.093,15.093,0,0,0-3.366-1.818l-.882,1.26A13.626,13.626,0,0,1,21.654-7ZM20.376,1.17C21.384-.5,22.518-2.646,23.4-4.518l-1.26-1.1A53.994,53.994,0,0,1,18.936.09ZM19.35-13.77a14.277,14.277,0,0,1,3.258,2.052l.954-1.368a13,13,0,0,0-3.294-1.908ZM34.9-4.14h-4.9v-2.3h3.888V-8.01H30.006v-2.232h4.5v-1.566H31.968a29.138,29.138,0,0,0,1.6-2.772l-1.782-.54a17.9,17.9,0,0,1-1.512,3.06l.738.252H27.18l.828-.36a10.656,10.656,0,0,0-1.674-2.916l-1.494.612a13.619,13.619,0,0,1,1.476,2.664h-2.3v1.566h4.266V-8.01H24.552v1.566h3.726v2.3h-4.7v1.6h4.7v3.96h1.728v-3.96h4.9Zm5.292-5.148h2v-1.584h-2v-4H38.628v4H36.414v1.584h2.214V-3.87c-.9.36-1.728.684-2.376.918L36.9-1.278c1.6-.7,3.654-1.638,5.544-2.556L42.066-5.31c-.612.252-1.26.522-1.872.792ZM46.26-.45c-1.152,0-1.35-.2-1.35-1.206v-5.9l2.016-.864v5.8h1.566V-9.09l2.088-.9c0,2.754-.036,4.428-.108,4.77-.072.378-.234.45-.468.45-.18,0-.666,0-1.044-.018a5.169,5.169,0,0,1,.378,1.422,5.547,5.547,0,0,0,1.728-.2c.558-.144.864-.54.954-1.3.108-.7.144-3.15.144-6.516l.072-.288-1.17-.45-.288.234-.324.252-1.962.828v-4.284H46.926v4.95l-2.016.846v-4.1H43.326v4.77l-1.872.792.63,1.494,1.242-.54v5.2c0,2.16.63,2.718,2.844,2.718h4.122c1.962,0,2.466-.81,2.7-3.294a4.466,4.466,0,0,1-1.476-.63C51.372-.918,51.192-.45,50.2-.45Zm13-4.446c-.5.252-.99.486-1.494.738V-9.2h1.53v-1.584h-1.53v-4.086H56.2v4.086H54.432V-9.2H56.2v5.8c-.7.342-1.35.63-1.89.864l.612,1.674c1.44-.72,3.168-1.656,4.788-2.556ZM65.25-3.618c-2.286.594-4.662,1.17-6.246,1.512l.414,1.584C61.11-1.008,63.342-1.6,65.412-2.2ZM63.288-5.562H61.38V-8.226h1.908ZM60.1-9.54v5.292h4.5V-9.54Zm8.8,0a21.328,21.328,0,0,1-1.4,4.122c-.2-1.62-.36-3.528-.432-5.6H70.7v-1.512h-.882l.792-.738a11.935,11.935,0,0,0-2.106-1.8l-.954.828a12.63,12.63,0,0,1,1.89,1.71h-2.43c0-.828-.018-1.674,0-2.538h-1.6c0,.846.018,1.692.036,2.538H59.562v1.512H65.5a53.42,53.42,0,0,0,.756,7.776A12.167,12.167,0,0,1,62.73.216a9.964,9.964,0,0,1,1.206,1.062,13.3,13.3,0,0,0,2.772-2.646c.576,1.728,1.332,2.79,2.376,2.79,1.224,0,1.674-.72,1.926-3.114a3.845,3.845,0,0,1-1.188-.9c-.054,1.746-.216,2.43-.522,2.43-.54,0-1.044-1.08-1.4-2.88a22.3,22.3,0,0,0,2.5-6.21Z" transform="translate(187.5 3275.585)" fill="#003a70"/>
    </g>
    <g id="グループ_589" data-name="グループ 589">
      <path id="パス_4044" data-name="パス 4044" d="M-51.822-2.5c-.018-.846-.054-2.268-.072-3.276,1.242-.576,2.394-1.062,3.312-1.4.54-.216,1.314-.5,1.8-.648l-.7-1.656c-.576.288-1.1.522-1.692.792-.846.378-1.764.756-2.862,1.278a2.347,2.347,0,0,0-2.376-1.512,5.25,5.25,0,0,0-2.268.522,13.013,13.013,0,0,0,1.35-2.322,54.481,54.481,0,0,0,5.868-.486V-12.87a41.213,41.213,0,0,1-5.274.522c.252-.774.4-1.458.5-1.926l-1.854-.144a10.747,10.747,0,0,1-.414,2.142h-1.044a26.143,26.143,0,0,1-3.06-.2V-10.8c.99.072,2.232.108,2.97.108h.522a18.562,18.562,0,0,1-4.032,5.2l1.53,1.152a19.171,19.171,0,0,1,1.638-1.908,4.528,4.528,0,0,1,2.952-1.278,1.389,1.389,0,0,1,1.44.882C-55.638-5.6-57.78-4.212-57.78-2.016-57.78.2-55.71.81-53.046.81A45.348,45.348,0,0,0-48.1.5l.054-1.818a30.016,30.016,0,0,1-4.95.468c-1.8,0-2.952-.234-2.952-1.458,0-1.044.954-1.854,2.466-2.7,0,.882-.018,1.89-.072,2.5Zm12.96-1.926h2.61V-5.886h-2.61V-8.172h2.808v-.306a9.676,9.676,0,0,1,.828.7,6.781,6.781,0,0,0,3.2-5.184h2.358c-.108,2.016-.234,2.808-.45,3.06a.64.64,0,0,1-.54.18,15.354,15.354,0,0,1-1.584-.072,3.72,3.72,0,0,1,.432,1.422,16.348,16.348,0,0,0,1.944-.018,1.563,1.563,0,0,0,1.116-.522c.4-.468.576-1.728.72-4.86.018-.2.018-.612.018-.612h-7.848v1.422h2.25a5.147,5.147,0,0,1-2.448,3.924v-.63H-39.1v-1.962h2.7v-1.458h-2.7V-15.1h-1.53v2.016H-43.4v1.458h2.772v1.962h-3.132v1.494h3.4v6.066a5.3,5.3,0,0,1-1.314-2.34c.036-.81.072-1.638.09-2.5l-1.494-.108c-.036,3.114-.18,5.94-1.17,7.722a9.483,9.483,0,0,1,1.35.756A10.315,10.315,0,0,0-41.958-1.8c1.35,2.25,3.51,2.772,7.11,2.772h6.894A5.638,5.638,0,0,1-27.27-.684c-1.332.054-6.516.054-7.6.036a11.546,11.546,0,0,1-4-.5Zm5.112-1.71h3.69v2.826h-3.69Zm-1.566,4.194H-28.4V-7.506h-6.912Zm14.238-12.384-.27,1.656c2.142.378,5.346.774,7.182.918l.234-1.656A66.45,66.45,0,0,1-21.078-14.328Zm7.614,5.346-1.062-1.188a4.52,4.52,0,0,1-.9.2c-1.422.18-5.508.414-6.462.432-.594,0-1.188-.018-1.6-.054l.162,1.98c.4-.072.9-.144,1.476-.2,1.08-.09,3.69-.306,5.022-.378-1.692,1.746-6.03,6.066-6.84,6.858A8.647,8.647,0,0,1-24.7-.4L-23,.774a50.336,50.336,0,0,1,3.42-3.8,1.937,1.937,0,0,1,1.242-.684c.45,0,.81.288,1.026.9.162.486.4,1.44.576,1.98C-16.344.342-15.426.684-13.9.684a28.211,28.211,0,0,0,3.42-.252l.108-1.89a16.473,16.473,0,0,1-3.42.36c-.81,0-1.224-.288-1.4-.918-.18-.522-.4-1.314-.558-1.818a1.669,1.669,0,0,0-1.242-1.26,2.123,2.123,0,0,0-.666-.09c.558-.594,2.412-2.286,3.132-2.952C-14.256-8.352-13.86-8.694-13.464-8.982ZM-.342-.81c-1.206,0-2.124-.486-2.124-1.26,0-.558.54-.99,1.278-.99A2.147,2.147,0,0,1,.918-.882,9.318,9.318,0,0,1-.342-.81ZM3.42-13.716a6.3,6.3,0,0,1-1.134.18c-.972.09-5,.2-5.94.2a12.836,12.836,0,0,1-1.422-.09l.054,1.854c.4-.054.864-.09,1.314-.126.936-.054,3.978-.18,4.914-.216-.9.774-2.952,2.484-3.942,3.312C-3.78-7.74-6.012-5.868-7.4-4.734L-6.084-3.4c2.106-2.232,3.8-3.564,6.642-3.564,2.178,0,3.87,1.188,3.87,2.862a2.911,2.911,0,0,1-1.872,2.79A3.563,3.563,0,0,0-1.188-4.446,2.753,2.753,0,0,0-4.14-1.908C-4.14-.306-2.484.81-.018.81c4,0,6.282-2.034,6.282-4.9,0-2.484-2.214-4.32-5.2-4.32A6.634,6.634,0,0,0-1.044-8.1c1.26-1.044,3.42-2.934,4.338-3.582.324-.234.738-.5,1.1-.738ZM13-15.1A14.152,14.152,0,0,1,9.342-11.43a9.541,9.541,0,0,1,.9,1.206,18.613,18.613,0,0,0,4.266-4.3Zm.4,3.726a15.753,15.753,0,0,1-4.23,4.788,12.737,12.737,0,0,1,.918,1.53,15.186,15.186,0,0,0,1.764-1.674v8.19H13.41V-8.6a20.757,20.757,0,0,0,1.458-2.25ZM21.4-4.662h3.78V-6.228H21.4V-9.414h4.266v-1.6h-2.5a35.3,35.3,0,0,0,1.818-3.528l-1.62-.558a22.356,22.356,0,0,1-1.692,3.636l1.206.45H18.594L19.6-11.5a22.487,22.487,0,0,0-1.89-3.474l-1.386.576a27.4,27.4,0,0,1,1.728,3.384H15.426v1.6h4.338V-1.1A5.128,5.128,0,0,1,17.46-4.1a29.005,29.005,0,0,0,.378-3.06L16.164-7.29C15.966-4.014,15.408-1.3,13.7.342a8.957,8.957,0,0,1,1.3,1.152,8.987,8.987,0,0,0,1.926-3.4c1.332,2.394,3.312,3.042,5.886,3.042H25.6a6.918,6.918,0,0,1,.5-1.6c-.576.018-2.718.018-3.168.018A10.378,10.378,0,0,1,21.4-.558ZM38.2-10.638a16.8,16.8,0,0,1-.792,1.71h-3.8l.522-.108a7.573,7.573,0,0,0-.774-1.6Zm5.418,7.884v-1.4H36.522v-1.1h5.526v-1.26H36.522V-7.6h6.372V-8.928H39.078c.306-.5.666-1.1,1.008-1.71H43.56v-1.4H40.968a28.163,28.163,0,0,0,1.494-2.448l-1.728-.432a15.689,15.689,0,0,1-1.26,2.664l.684.216H38.214V-15.12H36.63v3.078H34.848V-15.12H33.282v3.078H31.3l.918-.342a12.512,12.512,0,0,0-1.44-2.574l-1.458.486a13.5,13.5,0,0,1,1.314,2.43H27.972v1.4h4.086l-.432.072a8.917,8.917,0,0,1,.756,1.638h-3.69V-7.6h6.192v1.08h-5.31v1.26h5.31v1.1H27.9v1.4h5.562A17.464,17.464,0,0,1,27.4-.252a7.512,7.512,0,0,1,1.1,1.422,17.879,17.879,0,0,0,6.39-3.24V1.422h1.638V-2.2a16.057,16.057,0,0,0,6.444,3.384A7.517,7.517,0,0,1,44.082-.306a16.53,16.53,0,0,1-6.1-2.448Zm14.112-8.838H49.788V-13.14h7.938Zm1.764-2.88H48.114v4.212H59.49ZM49-3.87h9.45v1.062H49Zm0-2.16h9.45v1.044H49Zm0-2.16h9.45v1.026H49ZM60.192-1.6V-9.4H47.34V-1.6h3.114a21.067,21.067,0,0,1-5,1.818,10.085,10.085,0,0,1,1.26,1.206A22.664,22.664,0,0,0,52.29-.756L51.03-1.6h5.2L54.918-.63a47.911,47.911,0,0,1,5.67,2.07L62.064.27A52.573,52.573,0,0,0,56.754-1.6Z" transform="translate(187.5 3187.908)" fill="#003a70"/>
      <path id="パス_4043" data-name="パス 4043" d="M-54.35.65c6.75,0,12.3-3.9,12.3-10.55,0-4.95-3.35-8.15-7.6-9.2v-.25c3.9-1.45,6.35-4.4,6.35-8.65,0-6.1-4.65-9.5-11.25-9.5A15.509,15.509,0,0,0-65.1-33.05l3,3.6a10.776,10.776,0,0,1,7.35-3.5c3.5.05,5.65,2.1,5.65,5.35,0,3.7-2.4,6.45-9.65,6.45v4.25c8.3,0,10.9,2.65,10.9,6.75,0,3.8-2.85,6.1-7,6.1a11.892,11.892,0,0,1-8.7-4.05l-2.8,3.7C-63.9-1.65-60.15.65-54.35.65Zm29.4,0c7.1,0,11.9-4.2,11.9-9.65,0-5-2.9-7.85-6.2-9.75V-19c2.3-1.7,4.85-4.9,4.85-8.65,0-5.75-4-9.75-10.4-9.75-6.05,0-10.5,3.75-10.5,9.5,0,3.9,2.2,6.65,4.95,8.6v.25c-3.4,1.8-6.6,5.05-6.6,9.9C-36.95-3.45-31.85.65-24.95.65Zm2.4-21.1c-4.1-1.6-7.6-3.45-7.6-7.45a5.039,5.039,0,0,1,5.25-5.35c3.6,0,5.65,2.55,5.65,5.95A9.316,9.316,0,0,1-22.55-20.45ZM-24.85-3.5c-3.95,0-7-2.55-7-6.2a9.389,9.389,0,0,1,4.3-7.7c5,2.05,9.05,3.75,9.05,8.25C-18.5-5.7-21.1-3.5-24.85-3.5ZM3.5.65c7.2,0,11.9-6.4,11.9-19.2,0-12.7-4.7-18.95-11.9-18.95-7.25,0-11.9,6.2-11.9,18.95C-8.4-5.75-3.75.65,3.5.65Zm0-4.55c-3.75,0-6.4-4-6.4-14.65,0-10.55,2.65-14.4,6.4-14.4s6.4,3.85,6.4,14.4C9.9-7.9,7.25-3.9,3.5-3.9Zm36-36.7C39.15-34,39.45-10.8,19.45-.15A15.914,15.914,0,0,1,23.3,3.5c11.6-6.65,16.85-17.45,19.25-27C45.15-13.85,50.7-2.4,62.8,3.45a15.063,15.063,0,0,1,3.55-3.9c-18.7-8.6-21.3-31.05-21.75-37.7.1-.9.1-1.75.15-2.45Z" transform="translate(187.5 3150.908)" fill="#003a70"/>
      <path id="パス_4042" data-name="パス 4042" d="M-27.486-5.418l.54-1.782c.432-1.44.846-2.9,1.224-4.41h.072c.414,1.494.81,2.97,1.26,4.41l.522,1.782ZM-22.248,0h2.214l-4.392-13.248h-2.412L-31.23,0h2.124l1.134-3.78h4.608Zm3.96,0H-16.2V-5.022h2c2.88,0,4.986-1.332,4.986-4.23,0-2.988-2.106-4-5.058-4h-4.014ZM-16.2-6.7v-4.878h1.728c2.106,0,3.2.576,3.2,2.322S-12.276-6.7-14.4-6.7ZM-5.652-5.418l.54-1.782c.432-1.44.846-2.9,1.224-4.41h.072c.414,1.494.81,2.97,1.26,4.41l.522,1.782ZM-.414,0H1.8L-2.592-13.248H-5L-9.4,0h2.124l1.134-3.78H-1.53ZM8.514.234a5.231,5.231,0,0,0,4.122-1.908L11.52-2.988a3.861,3.861,0,0,1-2.934,1.4C6.246-1.584,4.77-3.51,4.77-6.66c0-3.114,1.584-5.022,3.87-5.022a3.524,3.524,0,0,1,2.592,1.188l1.134-1.332A5.105,5.105,0,0,0,8.6-13.5c-3.348,0-5.976,2.592-5.976,6.912C2.628-2.25,5.184.234,8.514.234ZM26.46-9.36l-1.08.468a17.022,17.022,0,0,1,1.44,2.52l1.116-.5A25.13,25.13,0,0,0,26.46-9.36Zm2-.774-1.08.486A16.893,16.893,0,0,1,28.89-7.164l1.1-.54A28.166,28.166,0,0,0,28.458-10.134ZM14.652-12.042l.18,1.962c2-.432,6.372-.864,7.92-1.026a7.061,7.061,0,0,0-3.006,5.778c0,3.924,3.654,5.8,7.146,5.976L27.54-1.26c-2.934-.144-5.958-1.206-5.958-4.464a5.893,5.893,0,0,1,3.924-5.346,17.086,17.086,0,0,1,3.474-.252l-.018-1.818c-1.206.036-3.006.144-4.9.306-3.276.27-6.462.576-7.758.7C15.948-12.1,15.336-12.06,14.652-12.042Z" transform="translate(187.5 3086.908)" fill="#003a70"/>
    </g>
  </g>
</svg>
